<svg id="Layer_1" data-name="Layer 1" xmlns="http://www.w3.org/2000/svg" viewBox="0 0 94.44 31.5"><defs><style>.cls-1{fill:#fff;}</style></defs><title>mada</title><path class="cls-1" d="M94.41.32c.32.07.64.12,1,.21A4.91,4.91,0,0,1,99.1,4.76a6.56,6.56,0,0,1-.36,3.74,4.83,4.83,0,0,1-4.19,3,8.59,8.59,0,0,1-3.83-.45,1.89,1.89,0,0,0-.73,0c-.73.06-1.45.18-2.18.19-4.53,0-9.06,0-13.59,0h-.5l.33-2.18h5.81a.33.33,0,0,0,0-.11c0-1.18,0-2.36,0-3.53a4.39,4.39,0,0,0-.25-1.26A2.06,2.06,0,0,0,77.48,2.7H74.75c.07-.52.13-1,.2-1.49.12-.75.12-.75.9-.75a27.68,27.68,0,0,1,2.9.06,4.5,4.5,0,0,1,4.08,3.95A17.94,17.94,0,0,1,83,6.78c0,.74,0,1.49,0,2.26l.37,0c1.68,0,3.35,0,5,0a.43.43,0,0,0,.51-.44,6.54,6.54,0,0,0,0-.71c0-1.37,0-2.75,0-4.12A2.83,2.83,0,0,1,91.16.74c.62-.19,1.27-.28,1.91-.42ZM91.85,8.78c.24,0,.38.09.52.1.49,0,1,.1,1.49.11A2,2,0,0,0,96,7.37a5.57,5.57,0,0,0,0-2.95A1.81,1.81,0,0,0,94.32,3,5.06,5.06,0,0,0,92,3.27l-.17.09Z" transform="translate(-4.78 -0.25)"/><path class="cls-1" d="M72.63.5,72.3,2.72H65.88a5.2,5.2,0,0,0-.86.05,1.21,1.21,0,0,0-1.1,1.38,1.26,1.26,0,0,0,1.26,1.29c1,0,2,0,3,0a6.61,6.61,0,0,1,1.48.17A3.25,3.25,0,0,1,72.19,9,5.74,5.74,0,0,1,72,10.25a3,3,0,0,1-2.6,2.24,10.57,10.57,0,0,1-2,.19c-4.36,0-8.72,0-13.08,0a4.48,4.48,0,0,1-4.66-4.51,11.87,11.87,0,0,1,.23-3.94A4.63,4.63,0,0,1,54.49.65c1.3,0,2.59,0,3.89,0l.25,0L58.3,2.89H56a7.07,7.07,0,0,0-1.14,0,2.16,2.16,0,0,0-1.8,1.7,8.93,8.93,0,0,0-.09,4,2,2,0,0,0,2,1.78c1.27.08,2.54.06,3.81.06h8.53a3.17,3.17,0,0,0,.62-.05A1.44,1.44,0,0,0,69.18,8.8a1.43,1.43,0,0,0-1.46-1.35c-1.2,0-2.41,0-3.61-.05a3.06,3.06,0,0,1-3.16-2.7A3.27,3.27,0,0,1,63.33.81,6.78,6.78,0,0,1,65.14.5c2.41,0,4.82,0,7.23,0Z" transform="translate(-4.78 -0.25)"/><path class="cls-1" d="M55.73,31.41v-.48q0-2.95,0-5.89c0-1.43-.64-1.94-2-1.67-.9.18-.9.18-.9,1.08q0,3.22,0,6.44v.5H49.67c0-.14,0-.28,0-.42q0-3.87,0-7.74c0-1.19.31-1.63,1.45-2a10,10,0,0,1,4.81-.35,5.1,5.1,0,0,1,1.27.48.56.56,0,0,0,.54,0A7.36,7.36,0,0,1,62.44,21a2.87,2.87,0,0,1,2.32,2.77c.07,1.54,0,3.09.06,4.63,0,1,0,2,0,3H61.74v-.46q0-2.95,0-5.89a5.2,5.2,0,0,0,0-.67,1.14,1.14,0,0,0-.9-1,3.27,3.27,0,0,0-2.1.36c0,.47.09.9.09,1.34,0,2,0,3.93,0,5.89v.45Z" transform="translate(-4.78 -0.25)"/><path class="cls-1" d="M87.82,16.07v.51q0,6.24,0,12.49c0,.13,0,.26,0,.39A1.35,1.35,0,0,1,86.71,31a14.27,14.27,0,0,1-2.76.53,9,9,0,0,1-2.57-.17,4.42,4.42,0,0,1-3.46-4.24,9,9,0,0,1,.22-3,4,4,0,0,1,4-3.17,21.7,21.7,0,0,1,2.59.25c0-.05,0-.19,0-.33,0-1.28,0-2.57,0-3.85,0-.23,0-.36.3-.4ZM84.71,26.28c0-.82,0-1.65,0-2.47,0-.22-.07-.34-.29-.38s-.71-.17-1.07-.22a1.9,1.9,0,0,0-2.24,1.5,5.66,5.66,0,0,0,0,2.95,2,2,0,0,0,2.13,1.59c.39,0,.77-.1,1.16-.14s.29-.15.29-.36C84.71,27.93,84.71,27.11,84.71,26.28Z" transform="translate(-4.78 -0.25)"/><path class="cls-1" d="M99.17,31.75c-.91-.16-1.76-.33-2.63-.46a3.64,3.64,0,0,0-1.12,0,8.25,8.25,0,0,1-3.62,0,2.84,2.84,0,0,1-2.25-2.81,2.83,2.83,0,0,1,2-3,8.59,8.59,0,0,1,2.78-.39h1.76a1.46,1.46,0,0,0-1.5-2,10.63,10.63,0,0,0-3.54.59l-.82.26-.34-2.25c1-.26,2-.56,3-.76a8.11,8.11,0,0,1,3.74,0,3,3,0,0,1,2.41,2.87c.06.74,0,1.49,0,2.24,0,1.73,0,3.46,0,5.18ZM95.1,27v0c-.42,0-.84,0-1.25.07a1.27,1.27,0,0,0-1.25,1.37A1.17,1.17,0,0,0,94,29.55a14.8,14.8,0,0,0,2.11-.37c.08,0,.18-.2.19-.31,0-.52,0-1,0-1.57,0-.23-.06-.34-.31-.32S95.38,27,95.1,27Z" transform="translate(-4.78 -0.25)"/><path class="cls-1" d="M76.11,31.75c-.79-.14-1.59-.28-2.38-.44a3.29,3.29,0,0,0-1.35,0,7.62,7.62,0,0,1-3.58,0,2.84,2.84,0,0,1-2.24-2.81,2.73,2.73,0,0,1,2-3,14.89,14.89,0,0,1,2.66-.4c.62-.06,1.25,0,1.87,0,.3-1.27-.28-2-1.55-2a11.65,11.65,0,0,0-3.92.73l-.41.13-.32-2.21a12.78,12.78,0,0,1,6.38-.86,3,3,0,0,1,2.8,3.16c.07,2.53,0,5.05,0,7.58A.4.4,0,0,1,76.11,31.75ZM73.24,27c-.88,0-1.68,0-2.47,0a1.24,1.24,0,0,0-1.2,1.38,1.17,1.17,0,0,0,1.35,1.12A16.06,16.06,0,0,0,73,29.19a.32.32,0,0,0,.2-.23C73.25,28.33,73.24,27.69,73.24,27Z" transform="translate(-4.78 -0.25)"/><rect class="cls-1" width="40.06" height="13.53"/><rect class="cls-1" y="17.87" width="40.06" height="13.53"/></svg>