<svg id="Layer_1" data-name="Layer 1" xmlns="http://www.w3.org/2000/svg" viewBox="0 0 32 32"><defs><style>.cls-1{fill:gray;}</style></defs><title>done</title><path class="cls-1" d="M25.77,32H6.23a2.35,2.35,0,0,1-2.35-2.35V5A2.35,2.35,0,0,1,6.23,2.61H11a1,1,0,1,1,0,2H6.23a.3.3,0,0,0-.3.3v24.7a.3.3,0,0,0,.3.3H25.77a.3.3,0,0,0,.3-.3V5a.3.3,0,0,0-.3-.3H21a1,1,0,1,1,0-2h4.76A2.35,2.35,0,0,1,28.11,5v24.7A2.35,2.35,0,0,1,25.77,32Z"/><path class="cls-1" d="M14.37,22.43a1,1,0,0,1-.72-.3l-3-3A1,1,0,0,1,12,17.64L14.37,20,20,14.38a1,1,0,1,1,1.44,1.44l-6.31,6.31A1,1,0,0,1,14.37,22.43Z"/><path class="cls-1" d="M19.68,7.26H12.32A2.35,2.35,0,0,1,10,4.92V2.35A2.35,2.35,0,0,1,12.32,0h7.36A2.35,2.35,0,0,1,22,2.35V4.92A2.35,2.35,0,0,1,19.68,7.26ZM12.32,2a.3.3,0,0,0-.3.3V4.92a.3.3,0,0,0,.3.3h7.36a.3.3,0,0,0,.3-.3V2.35a.3.3,0,0,0-.3-.3Z"/></svg>