<svg id="Layer_1" data-name="Layer 1" xmlns="http://www.w3.org/2000/svg" viewBox="0 0 32.01 25.63"><defs><style>.cls-1{fill:#fff;}</style></defs><title>email</title><path class="cls-1" d="M32,9.08c0,.21,0,.35,0,.49q0,7.45,0,14.9A5.08,5.08,0,0,1,31.83,26a4,4,0,0,1-3.71,2.8c-.71,0-1.41,0-2.12,0H4a3.88,3.88,0,0,1-3.49-2A3.55,3.55,0,0,1,0,25q0-7.8,0-15.59c0-.07,0-.14,0-.28l.42.24,9.21,6c1.84,1.19,3.68,2.36,5.51,3.58a1.38,1.38,0,0,0,1.7,0q7.33-4.77,14.68-9.51Z" transform="translate(0.01 -3.18)"/><path class="cls-1" d="M32,6.54,29.29,8.27q-6.44,4.16-12.87,8.34a.65.65,0,0,1-.84,0Q8,11.68.42,6.78C0,6.53,0,6.52.15,6.09A3.91,3.91,0,0,1,3.47,3.23a8,8,0,0,1,.86,0q11.8,0,23.59,0a4,4,0,0,1,3.82,2.59C31.83,6,31.88,6.27,32,6.54Z" transform="translate(0.01 -3.18)"/></svg>