<svg id="Layer_1" data-name="Layer 1" xmlns="http://www.w3.org/2000/svg" viewBox="0 0 32 31.88"><defs><style>.cls-1{fill:gray;}</style></defs><title>greySearch</title><path class="cls-1" d="M25.61,20.18l.39.3,4,3a4.68,4.68,0,0,1,2,3.2,4.54,4.54,0,0,1-3.72,5.17,4.72,4.72,0,0,1-4.82-1.9c-1-1.3-2-2.64-3-4l-.28-.37-.42.17A16.34,16.34,0,0,1,15.6,27a12.78,12.78,0,0,1-5.46-.3,13.12,13.12,0,0,1-9.41-8.9A13.08,13.08,0,0,1,3.16,5,12.9,12.9,0,0,1,10.86.34a13.55,13.55,0,0,1,16,10.23A14.33,14.33,0,0,1,27,15.8,11.74,11.74,0,0,1,25.66,20,1.36,1.36,0,0,0,25.61,20.18ZM24,13.65A10.38,10.38,0,1,0,13.57,24,10.38,10.38,0,0,0,24,13.65Z" transform="translate(0 -0.06)"/></svg>