<svg id="Layer_1" data-name="Layer 1" xmlns="http://www.w3.org/2000/svg" viewBox="0 0 31.5 31.5"><defs><style>.cls-1{fill:#fff;}</style></defs><title>instagram</title><path class="cls-1" d="M.25,16q0-3.83,0-7.65A8.42,8.42,0,0,1,.55,6,7.82,7.82,0,0,1,3.24,2,7.71,7.71,0,0,1,7.26.3a9.11,9.11,0,0,1,1,0H23.7A7.83,7.83,0,0,1,28.76,2a7.66,7.66,0,0,1,2.87,4.9,9.48,9.48,0,0,1,.11,1.5c0,5.09,0,10.18,0,15.28a7.94,7.94,0,0,1-1.26,4.47A7.8,7.8,0,0,1,26,31.45a8.39,8.39,0,0,1-2.31.3H8.35a8.08,8.08,0,0,1-3.77-.87A7.87,7.87,0,0,1,1.1,27.39a8,8,0,0,1-.85-3.71Q.25,19.83.25,16ZM16,29.11h7.49c.22,0,.45,0,.67,0a5.14,5.14,0,0,0,4.14-2.42,5.35,5.35,0,0,0,.83-3q0-7.17,0-14.34c0-.46,0-.91,0-1.37a5.1,5.1,0,0,0-2-4,5.18,5.18,0,0,0-3.33-1.11H8.24a5.51,5.51,0,0,0-1,.08,5.14,5.14,0,0,0-3.8,2.81,5.43,5.43,0,0,0-.56,2.55q0,7.22,0,14.44c0,.43,0,.87,0,1.3A5.12,5.12,0,0,0,5.33,28.3a5.23,5.23,0,0,0,3,.82Z" transform="translate(-0.25 -0.25)"/><path class="cls-1" d="M23.88,16A7.87,7.87,0,1,1,16,8.12,7.87,7.87,0,0,1,23.88,16Zm-2.64,0A5.24,5.24,0,1,0,16,21.24,5.22,5.22,0,0,0,21.24,16Z" transform="translate(-0.25 -0.25)"/><path class="cls-1" d="M24.54,9.43a2,2,0,1,1,2-2A2,2,0,0,1,24.54,9.43Z" transform="translate(-0.25 -0.25)"/></svg>