<svg id="Layer_1" data-name="Layer 1" xmlns="http://www.w3.org/2000/svg" viewBox="0 0 32 32"><defs><style>.cls-1{fill:gray;}</style></defs><title>like</title><path class="cls-1" d="M16,30.23a2.08,2.08,0,0,1-1.33-.5l-.9-.78-2.18-1.87C10.33,26,9.08,25,7.85,23.88A39.4,39.4,0,0,1,3,19a12.75,12.75,0,0,1-2.58-4.8,10.1,10.1,0,0,1,2-9.36,8.27,8.27,0,0,1,5.42-3A8.18,8.18,0,0,1,13.35,3a9.32,9.32,0,0,1,2.59,2.41l0,.05a9.94,9.94,0,0,1,2.16-2.14,8,8,0,0,1,5-1.56,8.52,8.52,0,0,1,7.7,4.83,10.23,10.23,0,0,1,.2,9.19,15.22,15.22,0,0,1-2.68,4,54.34,54.34,0,0,1-5.27,5l-5.73,4.92A2.12,2.12,0,0,1,16,30.23ZM9,3.95A7,7,0,0,0,8.08,4,6.15,6.15,0,0,0,4,6.2,7.93,7.93,0,0,0,2.5,13.64a10.23,10.23,0,0,0,2.16,4,37.52,37.52,0,0,0,4.63,4.63c1.22,1.07,2.46,2.13,3.7,3.19l2.2,1.89L16,28,16,28l5.59-4.8a52.52,52.52,0,0,0,5.06-4.82A13.14,13.14,0,0,0,29,14.92a8.14,8.14,0,0,0-.14-7.31A6.29,6.29,0,0,0,23,4a5.76,5.76,0,0,0-3.63,1.16A8.61,8.61,0,0,0,17.1,7.72L16.93,8A1.09,1.09,0,0,1,15.1,8l-.3-.45c-.2-.3-.4-.59-.61-.88a7.15,7.15,0,0,0-2-1.85A5.88,5.88,0,0,0,9,3.95Z"/></svg>