<svg id="Layer_1" data-name="Layer 1" xmlns="http://www.w3.org/2000/svg" viewBox="0 0 32 32"><defs><style>.cls-1{fill:gray;}</style></defs><title>lock</title><path class="cls-1" d="M24,15s0-.06,0-.09V8.55a8.24,8.24,0,1,0-16.47,0v6.22a1.39,1.39,0,0,0,.07.41,4.22,4.22,0,0,0-2.79,4l-.17,8.33a4.23,4.23,0,0,0,4.22,4.23l14.08,0a4.23,4.23,0,0,0,4.23-4.22l.17-8.33A4.23,4.23,0,0,0,24,15ZM10.35,8.52a5.44,5.44,0,0,1,10.88,0v6.37l-10.89,0a1.36,1.36,0,0,0,0-.16Zm6.87,14.26a5.2,5.2,0,0,0-.24.62c-.05.21-.11.41-.17.62l-.2.62c-.15.41-.3.82-.5,1.23a.14.14,0,0,1-.18.06.14.14,0,0,1-.06-.07c-.19-.41-.34-.82-.49-1.24l-.2-.62c-.06-.21-.11-.41-.17-.62a5.23,5.23,0,0,0-.23-.62.85.85,0,0,1,0-.62,1.9,1.9,0,0,1,.37-.62,2.61,2.61,0,0,1,.31-.31l.21-.15.1-.08.13-.08a.24.24,0,0,1,.25,0l.13.08.1.08.21.15a2.62,2.62,0,0,1,.3.31,1.9,1.9,0,0,1,.37.62A.85.85,0,0,1,17.22,22.78Z"/></svg>