<svg id="Layer_1" data-name="Layer 1" xmlns="http://www.w3.org/2000/svg" viewBox="0 0 24.58 32.25"><defs><style>.cls-1{fill:#fff;}</style></defs><title>locution</title><path class="cls-1" d="M16,32.12l-.34-.42L6.36,19.79a12,12,0,0,1-2.63-8.25A12.18,12.18,0,0,1,12.84.31a12.15,12.15,0,0,1,9.32,1.17A11.6,11.6,0,0,1,27.9,9.09a12.18,12.18,0,0,1-1.13,9A12.05,12.05,0,0,1,25.7,19.7Q21,25.76,16.26,31.79ZM16,5.56a6.61,6.61,0,1,0,6.61,6.64A6.63,6.63,0,0,0,16,5.56Z" transform="translate(-3.71 0.12)"/><path class="cls-1" d="M20.71,12.18a4.72,4.72,0,0,1-9.44,0,4.72,4.72,0,1,1,9.44,0Z" transform="translate(-3.71 0.12)"/></svg>