<svg id="Layer_1" data-name="Layer 1" xmlns="http://www.w3.org/2000/svg" xmlns:xlink="http://www.w3.org/1999/xlink" viewBox="0 0 31.8 31.8"><defs><style>.cls-1{fill:#f2f2f2;}.cls-2{fill:url(#linear-gradient);}</style><linearGradient id="linear-gradient" x1="7.87" y1="16" x2="24.13" y2="16" gradientUnits="userSpaceOnUse"><stop offset="0" stop-color="#e14448"/><stop offset="1" stop-color="#a12a21"/></linearGradient></defs><title>mail</title><circle class="cls-1" cx="15.9" cy="15.9" r="15.9"/><path class="cls-2" d="M22.43,9.91a.34.34,0,0,0-.2.07L16,14.56,9.77,10a.34.34,0,0,0-.2-.07A1.69,1.69,0,0,0,7.87,11.6v8.8a1.69,1.69,0,0,0,1.69,1.69h.68a.34.34,0,0,0,.34-.34V13.94l5.22,3.69a.34.34,0,0,0,.39,0l5.22-3.69v7.81a.34.34,0,0,0,.34.34h.68a1.69,1.69,0,0,0,1.69-1.69V11.6A1.69,1.69,0,0,0,22.43,9.91Z" transform="translate(-0.1 -0.1)"/></svg>