<svg id="Layer_1" data-name="Layer 1" xmlns="http://www.w3.org/2000/svg" viewBox="0 0 31.52 29.58"><defs><style>.cls-1{fill:#fff;}</style></defs><title>snapchat</title><path class="cls-1" d="M24.52,13.38a3.66,3.66,0,0,0,.72,0,5.08,5.08,0,0,0,.92-.29,1.91,1.91,0,0,1,1.8.16,1.11,1.11,0,0,1,.23,1.84,3.31,3.31,0,0,1-1.28.76c-.44.16-.88.31-1.31.49a2.26,2.26,0,0,0-.53.32.81.81,0,0,0-.31.86,2.19,2.19,0,0,0,.12.41,9.77,9.77,0,0,0,3.88,4.5,6.32,6.32,0,0,0,2,.77,4.7,4.7,0,0,1,.47.11.73.73,0,0,1,.48,1,1.58,1.58,0,0,1-.55.64,6.19,6.19,0,0,1-1.36.61c-.72.22-1.47.36-2.26.55-.09.36-.22.74-.29,1.13A1,1,0,0,1,26,28.1c-.64-.1-1.27-.2-1.91-.24a4.51,4.51,0,0,0-3,.89c-.39.29-.8.54-1.19.82a6.68,6.68,0,0,1-7.7,0c-.43-.31-.88-.59-1.31-.91a4.81,4.81,0,0,0-3.45-.76c-.4,0-.79.13-1.19.19a3.36,3.36,0,0,1-.48.05.77.77,0,0,1-.84-.58,5.62,5.62,0,0,1-.25-1c-.05-.37-.26-.5-.6-.55a9.4,9.4,0,0,1-2.38-.61A4.88,4.88,0,0,1,.82,25a1.47,1.47,0,0,1-.4-.41.78.78,0,0,1,.53-1.28,10.65,10.65,0,0,0,1.82-.61,9,9,0,0,0,3.9-3.84,8,8,0,0,0,.49-1,1,1,0,0,0-.5-1.38,9.61,9.61,0,0,0-1-.41,13.4,13.4,0,0,1-1.25-.51,2.6,2.6,0,0,1-.74-.6,1,1,0,0,1,.12-1.5,1.7,1.7,0,0,1,1.84-.35,6.68,6.68,0,0,0,1,.31,1.13,1.13,0,0,0,.87-.09c0-.37,0-.74-.06-1.11,0-1.06-.06-2.13-.07-3.19a7.78,7.78,0,0,1,5.9-7.42,9.79,9.79,0,0,1,7.1.64,7.87,7.87,0,0,1,3.92,4.47,8.11,8.11,0,0,1,.37,2.81c0,1.09-.08,2.19-.13,3.28C24.52,13,24.52,13.14,24.52,13.38Z" transform="translate(-0.24 -1.21)"/></svg>