<svg id="Layer_1" data-name="Layer 1" xmlns="http://www.w3.org/2000/svg" viewBox="0 0 32 23.21"><defs><style>.cls-1{fill:#fff;}</style></defs><title>street</title><path class="cls-1" d="M13.85,27.58c-.09,0-5.71,0-5.8,0a.34.34,0,0,1-.32-.44c.13-.77,3.61-21.84,3.68-22.23a1.42,1.42,0,0,1,.07-.26.36.36,0,0,1,.36-.26h2.36l.11,0c0,.09,0,.18,0,.28q0,1.55-.07,3.11a1,1,0,0,0,.13.57.85.85,0,0,0,.77.44h1.71a.88.88,0,0,0,.92-.88c0-.2,0-.39,0-.59q0-1.37-.07-2.73c0-.06,0-.12,0-.2l.24,0h2.12c.34,0,.45.08.5.42.16.95,3.33,20.05,3.59,21.62,0,.23.08.46.11.69s-.08.43-.37.47l-5.74,0c0-1.07,0-3.23,0-3.87a1,1,0,0,0-1.08-1.06H14.93a1,1,0,0,0-1.06,1C13.84,24.8,13.85,26.5,13.85,27.58ZM18,17a1,1,0,0,0-1-1c-.67,0-1.34,0-2,0a1,1,0,0,0-.75.35A1,1,0,0,0,14,17c0,1,0,1.93-.07,2.89a1,1,0,0,0,1,1c.2,0,1.6,0,2.09,0a1,1,0,0,0,1-1.06C18.05,19.46,18,17.51,18,17Zm-.15-6.2A.86.86,0,0,0,17,9.94c-.68,0-1.36,0-2,0a.92.92,0,0,0-.42.15.9.9,0,0,0-.41.83c0,.81-.06,2.65,0,2.75a.9.9,0,0,0,.92.67h1.9a.94.94,0,0,0,1-1.05C17.9,12.9,17.86,11.24,17.84,10.8Z" transform="translate(0 -4.39)"/><path class="cls-1" d="M2.11,27.61H.48c-.44,0-.56-.18-.42-.59l7.22-22,.08-.23A.54.54,0,0,1,8,4.4H9.28c.38,0,.45.1.37.48C9.44,5.77,5,24.76,4.45,27a.65.65,0,0,1-.74.58H2.11Z" transform="translate(0 -4.39)"/><path class="cls-1" d="M28.27,27.6a.62.62,0,0,1-.55-.22,1.12,1.12,0,0,1-.17-.38c-.28-1.15-4.85-20.64-5.19-22.08a1.2,1.2,0,0,1,0-.16c0-.27,0-.35.33-.36H24.1a.51.51,0,0,1,.51.35c.07.16.11.32.17.48L31.95,27c.13.4,0,.57-.41.57Z" transform="translate(0 -4.39)"/></svg>