<svg id="Layer_1" data-name="Layer 1" xmlns="http://www.w3.org/2000/svg" viewBox="0 0 32 32"><defs><style>.cls-1{fill:#fff;}</style></defs><title>Trash</title><path class="cls-1" d="M16,11.86h6.79a.64.64,0,0,1,.64.71c0,.53-.08,1.07-.13,1.6l-.15,1.88-.24,3-.19,2.31-.24,3c-.06.73-.12,1.47-.18,2.2A1.51,1.51,0,0,1,20.72,28h-9.4a1.61,1.61,0,0,1-1-.32,1.55,1.55,0,0,1-.6-1.16q-.16-2-.31-3.95c-.12-1.49-.25-3-.37-4.48-.09-1.15-.18-2.31-.27-3.46,0-.6-.1-1.21-.15-1.81a2.82,2.82,0,0,1,0-.32.63.63,0,0,1,.59-.62H16ZM13.17,25.53c-.06-.92-.12-1.8-.17-2.68-.06-1.05-.13-2.11-.19-3.16q-.15-2.39-.3-4.79c0-.28,0-.56-.08-.83a.65.65,0,0,0-.48-.53.72.72,0,0,0-.93.67c0,.22,0,.44,0,.66q.09,1.56.19,3.12c.08,1.25.16,2.51.24,3.76.06,1,.12,2.1.19,3.14,0,.32,0,.64.07,1a.71.71,0,0,0,1.42-.06C13.17,25.7,13.17,25.59,13.17,25.53ZM20.65,20h0q.07-1.26.15-2.52c.05-.85.1-1.7.15-2.54,0-.23,0-.46,0-.68a.71.71,0,0,0-1-.67.69.69,0,0,0-.48.65q-.06.9-.11,1.8-.13,2.17-.26,4.34-.15,2.54-.3,5.09a2.72,2.72,0,0,0,0,.41.71.71,0,0,0,1,.59.73.73,0,0,0,.45-.7c0-.76.09-1.51.13-2.27Zm-3.91,0q0-2.78,0-5.57a2.48,2.48,0,0,0,0-.3.72.72,0,0,0-1.42,0,1.86,1.86,0,0,0,0,.3q0,5.59,0,11.18a2.12,2.12,0,0,0,0,.28.72.72,0,0,0,1.42,0c0-.09,0-.19,0-.28Q16.73,22.78,16.73,20Z"/><path class="cls-1" d="M16,10.42H7.27a.59.59,0,0,1-.57-.75c.15-.52.32-1,.52-1.54A.85.85,0,0,1,8,7.58H23.78a1.61,1.61,0,0,1,.38,0,.88.88,0,0,1,.65.59c.16.46.32.92.46,1.38a.6.6,0,0,1-.61.83H16Z"/><path class="cls-1" d="M14,5.48v.64H12.58a1.11,1.11,0,0,1,0-.14q0-.33,0-.66A1.35,1.35,0,0,1,13.86,4c1.41,0,2.83,0,4.24,0a1.36,1.36,0,0,1,1.34,1.25c0,.28,0,.56,0,.83a7,7,0,0,1-1.43,0V5.5C17.85,5.44,14.26,5.43,14,5.48Z"/></svg>