<svg id="Layer_1" data-name="Layer 1" xmlns="http://www.w3.org/2000/svg" xmlns:xlink="http://www.w3.org/1999/xlink" viewBox="0 0 31.75 31.75"><defs><style>.cls-1{fill:#fff;}.cls-2{fill:url(#linear-gradient);}</style><linearGradient id="linear-gradient" x1="7.9" y1="16" x2="24.1" y2="16" gradientUnits="userSpaceOnUse"><stop offset="0" stop-color="#e14448"/><stop offset="1" stop-color="#a12a21"/></linearGradient></defs><title>twitter</title><circle class="cls-1" cx="15.88" cy="15.87" r="15.88"/><path class="cls-2" d="M23.65,9.69a3.43,3.43,0,0,1-1.37,1.76A6.32,6.32,0,0,0,24.1,11l-.07.12a6.35,6.35,0,0,1-1.46,1.51.25.25,0,0,0-.12.24,9.38,9.38,0,0,1-.94,4.41,9.29,9.29,0,0,1-3.61,4.05,9,9,0,0,1-3.08,1.16,10.13,10.13,0,0,1-2.13.16A9.37,9.37,0,0,1,8,21.22l-.07,0,0,0a6.69,6.69,0,0,0,4.83-1.37,3.48,3.48,0,0,1-1.88-.68,3.33,3.33,0,0,1-1.18-1.63l.71,0a2.23,2.23,0,0,0,.71-.1,3.76,3.76,0,0,1-1.33-.66,3.38,3.38,0,0,1-.94-1.17A3.42,3.42,0,0,1,8.49,14a3.5,3.5,0,0,0,1.49.4,3.4,3.4,0,0,1-1.38-2A3.32,3.32,0,0,1,9,10a9.51,9.51,0,0,0,6.88,3.49l0-.3a3.34,3.34,0,0,1,2.8-3.76,3.26,3.26,0,0,1,2.84.91.26.26,0,0,0,.27.07,6.72,6.72,0,0,0,1.8-.69l.1-.05Z" transform="translate(-0.13 -0.13)"/></svg>