<svg id="Layer_1" data-name="Layer 1" xmlns="http://www.w3.org/2000/svg" viewBox="0 0 48.96 31.5"><defs><style>.cls-1{fill:#fff;}</style></defs><title>mastercard</title><path class="cls-1" d="M28.61,29.14A15.77,15.77,0,0,1,7.3,6.52a15.31,15.31,0,0,1,10-6,15.61,15.61,0,0,1,11.33,2.4,15.76,15.76,0,1,1,0,26.27ZM24.49,15.06h5.37a3.52,3.52,0,0,1,.53,0,1.41,1.41,0,0,1,1.22,1,1.36,1.36,0,0,1-.42,1.45,1.53,1.53,0,0,1-1.13.37H24.61c.05.32.08.56.14.8s.16.64.26,1h.76c.74,0,1.49,0,2.23,0a1.43,1.43,0,0,1,0,2.85c-.18,0-.35,0-.53,0H26.36a12.7,12.7,0,0,0,14.09,5.89A12.87,12.87,0,0,0,37.93,3.14a12.59,12.59,0,0,0-8.59,2.78,12.36,12.36,0,0,0-3.57,4.47c.69,0,1.29,0,1.88,0a2.78,2.78,0,0,1,.73.1,1.41,1.41,0,0,1,0,2.68,2.42,2.42,0,0,1-.68.09H25.17c-.13,0-.27,0-.45,0Z" transform="translate(-4.11 -0.25)"/></svg>