<?xml version="1.0" encoding="utf-8"?>
<!-- Generator: Adobe Illustrator 21.0.0, SVG Export Plug-In . SVG Version: 6.00 Build 0)  -->
<svg version="1.1" id="Layer_1" xmlns="http://www.w3.org/2000/svg" xmlns:xlink="http://www.w3.org/1999/xlink" x="0px" y="0px"
	 viewBox="0 0 98.6 31.5" style="enable-background:new 0 0 98.6 31.5;" xml:space="preserve">
<style type="text/css">
	.st0{fill:#FFFFFF;}
</style>
<title>visa</title>
<g>
	<path class="st0" d="M98.6,30.5h-7.4l-1-4.3H79.9l-1.7,4.3h-8.4c0.1-0.3,0.2-0.5,0.3-0.7L81.5,3.9c0.1-0.2,0.2-0.4,0.3-0.7
		c0.6-1.2,1.7-1.9,3-2c0.5,0,0.9-0.1,1.4-0.1h5.8L98.6,30.5z M88.8,20L86.5,9.3c-0.4,0.6-4.1,10.2-4.1,10.7H88.8z"/>
	<path class="st0" d="M71.5,1.8l-1.1,6.3C70.2,8.1,70,8,69.8,7.9c-2.2-1-4.6-1.4-7.1-1.2c-0.8,0-1.5,0.3-2.2,0.6
		c-0.3,0.2-0.6,0.4-0.9,0.7C59,8.6,59,9.7,59.6,10.3c0,0,0,0,0.1,0.1c0.4,0.5,0.9,0.8,1.5,1.2c1,0.6,2.1,1.1,3.2,1.6
		c1.5,0.7,2.8,1.6,4,2.7c1.7,1.7,2.4,4.1,1.9,6.5c-0.5,2.8-2.2,5.2-4.7,6.5c-2,1.1-4.2,1.8-6.5,2c-3.1,0.3-6.2,0.1-9.2-0.7
		c-0.7-0.2-1.4-0.4-2.2-0.7l1.1-6.6l0.8,0.4c2.4,1.1,5,1.7,7.6,1.6c0.9,0,1.9-0.1,2.7-0.4c0.5-0.2,1-0.5,1.5-0.8
		c0.9-0.7,1-2,0.3-2.9c-0.1-0.1-0.2-0.2-0.3-0.3c-0.3-0.3-0.7-0.6-1.2-0.9c-1-0.6-2-1.1-3-1.6c-1.3-0.6-2.6-1.4-3.7-2.4
		C50.4,13,50,8.5,52.5,5.4c0,0,0.1-0.1,0.1-0.1c1.7-2,3.9-3.4,6.5-4c3.9-1,8.1-0.9,11.9,0.4L71.5,1.8z"/>
	<path class="st0" d="M36.2,1.1L23.6,30.4h-8.5L8,6.2l0.1-0.1l0.3,0.2c3.8,2.6,7,5.9,9.5,9.7c0.7,1.2,1.3,2.5,1.6,3.8
		c0.1,0.4,0.2,0.7,0.4,1.2c0.2-0.4,0.3-0.6,0.4-0.9l7.2-18.4c0.3-0.8,0.2-0.7,1.1-0.7h6.7L36.2,1.1z"/>
	<path class="st0" d="M39.4,1.1h8l-5,29.4h-8L39.4,1.1z"/>
	<path class="st0" d="M0,1.4C0,1.1,0,0.9,0.3,0.9h11.4c0.4,0,0.9,0,1.3,0.1c1.4,0,2.6,1.1,2.9,2.5c0.5,2,0.9,4.1,1.3,6.2
		c0.4,1.8,0.7,3.5,1.1,5.3c0,0.2,0,0.4,0,0.6C14.7,7.6,8.1,3.5,0,1.4z"/>
</g>
</svg>
