<svg id="Layer_1" data-name="Layer 1" xmlns="http://www.w3.org/2000/svg" viewBox="0 0 32 32"><defs><style>.cls-1{fill:#fff;}</style></defs><title>edit</title><path class="cls-1" d="M18,5.34l4.37,4.37L12.09,20c-.12-.06-4.14-4.06-4.38-4.37Z"/><path class="cls-1" d="M16,27.26h12.2a.72.72,0,0,1,0,1.44H4a2.45,2.45,0,0,1-.33,0,.72.72,0,0,1,0-1.43H16Z"/><path class="cls-1" d="M23.46,8.69,19,4.22a3.11,3.11,0,0,1,4.4,0A3.17,3.17,0,0,1,23.46,8.69Z"/><path class="cls-1" d="M10.62,20.66l-4.51,1c0-.21.76-3.87,1-4.53C7.25,17.21,10.44,20.4,10.62,20.66Z"/></svg>