<svg id="Layer_1" data-name="Layer 1" xmlns="http://www.w3.org/2000/svg" xmlns:xlink="http://www.w3.org/1999/xlink" viewBox="0 0 31.8 31.8"><defs><style>.cls-1{fill:#f2f2f2;}.cls-2{fill:url(#linear-gradient);}.cls-3{fill:url(#linear-gradient-2);}.cls-4{fill:url(#linear-gradient-3);}</style><linearGradient id="linear-gradient" x1="8.21" y1="16" x2="23.79" y2="16" gradientUnits="userSpaceOnUse"><stop offset="0" stop-color="#e14448"/><stop offset="1" stop-color="#a12a21"/></linearGradient><linearGradient id="linear-gradient-2" x1="12.11" y1="16" x2="19.89" y2="16" xlink:href="#linear-gradient"/><linearGradient id="linear-gradient-3" x1="19.25" y1="11.78" x2="21.19" y2="11.78" xlink:href="#linear-gradient"/></defs><title>instagram</title><circle class="cls-1" cx="15.9" cy="15.9" r="15.9"/><path class="cls-2" d="M8.21,16q0-1.89,0-3.79a4.17,4.17,0,0,1,.15-1.14,3.87,3.87,0,0,1,1.33-2,3.81,3.81,0,0,1,2-.82,4.51,4.51,0,0,1,.51,0h7.62a3.87,3.87,0,0,1,2.5.85,3.79,3.79,0,0,1,1.42,2.42,4.69,4.69,0,0,1,.06.74c0,2.52,0,5,0,7.55A3.93,3.93,0,0,1,23.17,22a3.86,3.86,0,0,1-2.24,1.65,4.15,4.15,0,0,1-1.14.15H12.22a4,4,0,0,1-1.87-.43,3.89,3.89,0,0,1-1.72-1.73,4,4,0,0,1-.42-1.83Q8.21,17.9,8.21,16ZM16,22.48h4a2.54,2.54,0,0,0,2-1.2,2.64,2.64,0,0,0,.41-1.49q0-3.55,0-7.09c0-.23,0-.45,0-.68a2.52,2.52,0,0,0-1-2,2.56,2.56,0,0,0-1.64-.55H12.16a2.72,2.72,0,0,0-.49,0,2.54,2.54,0,0,0-1.88,1.39,2.68,2.68,0,0,0-.28,1.26q0,3.57,0,7.14c0,.21,0,.43,0,.64a2.53,2.53,0,0,0,1.2,2.09,2.59,2.59,0,0,0,1.48.4Z" transform="translate(-0.1 -0.1)"/><path class="cls-3" d="M19.89,16A3.89,3.89,0,1,1,16,12.11,3.89,3.89,0,0,1,19.89,16Zm-1.3,0A2.59,2.59,0,1,0,16,18.59,2.58,2.58,0,0,0,18.59,16Z" transform="translate(-0.1 -0.1)"/><path class="cls-4" d="M20.22,12.75a1,1,0,1,1,1-1A1,1,0,0,1,20.22,12.75Z" transform="translate(-0.1 -0.1)"/></svg>