<svg id="Layer_1" data-name="Layer 1" xmlns="http://www.w3.org/2000/svg" viewBox="0 0 23.61 31.46"><defs><style>.cls-1{fill:#fff;}</style></defs><title>loge in </title><path class="cls-1" d="M4.2,17.59H16c0,.15-.12.21-.2.29l-3,3-.23.25,2.16,2.16L22.08,16,14.76,8.66a25.39,25.39,0,0,0-2.19,2.17c.56.6,1.16,1.17,1.75,1.75l1.77,1.77c-.28.08-11.24.11-11.86,0,0-.12,0-.24,0-.37q0-2.25,0-4.5,0-3,0-6A3.14,3.14,0,0,1,5,1.37,3.06,3.06,0,0,1,7.12.29H24.43a3.29,3.29,0,0,1,1.79.44,3.06,3.06,0,0,1,1.56,2.55c0,.67,0,1.34,0,2q0,11.53,0,23.07a4.37,4.37,0,0,1-.12,1.1,3.14,3.14,0,0,1-2.92,2.29H7.53a3.23,3.23,0,0,1-1.67-.39,3.1,3.1,0,0,1-1.64-2.67c0-.58,0-1.16,0-1.74q0-4.45,0-8.9Z" transform="translate(-4.2 -0.27)"/></svg>