<svg id="Layer_1" data-name="Layer 1" xmlns="http://www.w3.org/2000/svg" viewBox="0 0 31.83 31.89"><defs><style>.cls-1{fill:#fff;}</style></defs><title>phone</title><path class="cls-1" d="M24.76,31.94a11,11,0,0,1-3.55-.66,25.14,25.14,0,0,1-6-3.11,43.27,43.27,0,0,1-7.85-6.9A36.2,36.2,0,0,1,2.18,14,18.94,18.94,0,0,1,.34,9.25,8.37,8.37,0,0,1,.16,6.19,4.25,4.25,0,0,1,1.4,3.69C2.32,2.8,3.23,1.91,4.11,1A3.18,3.18,0,0,1,8.6,1q2.16,2.13,4.29,4.29a3,3,0,0,1,.76,3.3A2.62,2.62,0,0,1,12,10.21a3.14,3.14,0,0,0-1.87,1.57,2.62,2.62,0,0,0-.21,1.91,10.29,10.29,0,0,0,2.16,4,15.53,15.53,0,0,0,3.48,3.15A9.18,9.18,0,0,0,18.09,22a3,3,0,0,0,3.58-1.77,3.29,3.29,0,0,1,.93-1.43,3,3,0,0,1,3.84,0c.12.1.23.21.35.32,1.38,1.37,2.72,2.78,4.13,4.12a3.23,3.23,0,0,1,0,4.66c-.87.84-1.73,1.69-2.56,2.57A4.51,4.51,0,0,1,25,31.94Z" transform="translate(-0.09 -0.06)"/></svg>