<svg id="Layer_1" data-name="Layer 1" xmlns="http://www.w3.org/2000/svg" viewBox="0 0 31.75 31.63"><defs><style>.cls-1{fill:#fff;}</style></defs><title>search</title><path class="cls-1" d="M25.53,20.15l.39.3,4,3a4.64,4.64,0,0,1,1.95,3.18,4.51,4.51,0,0,1-3.69,5.13,4.68,4.68,0,0,1-4.78-1.89c-1-1.29-2-2.62-3-3.93l-.28-.37-.41.17A16.21,16.21,0,0,1,15.6,27a12.68,12.68,0,0,1-5.42-.29A13,13,0,0,1,.85,17.83,13,13,0,0,1,3.26,5.07,12.8,12.8,0,0,1,10.9.46,13.45,13.45,0,0,1,26.75,10.61a14.22,14.22,0,0,1,.2,5.2A11.65,11.65,0,0,1,25.59,20,1.34,1.34,0,0,0,25.53,20.15Zm-1.6-6.48A10.3,10.3,0,1,0,13.59,23.94,10.3,10.3,0,0,0,23.93,13.67Z" transform="translate(-0.13 -0.19)"/></svg>