<svg id="Layer_1" data-name="Layer 1" xmlns="http://www.w3.org/2000/svg" viewBox="0 0 98.56 31.5"><defs><style>.cls-1{fill:#fff;}</style></defs><title>visa</title><path class="cls-1" d="M52.61,29.14A15.77,15.77,0,0,1,31.3,6.52a15.31,15.31,0,0,1,10-6,15.61,15.61,0,0,1,11.33,2.4,15.76,15.76,0,1,1,0,26.27ZM48.49,15.06h5.37a3.52,3.52,0,0,1,.53,0,1.41,1.41,0,0,1,1.22,1,1.36,1.36,0,0,1-.42,1.45,1.53,1.53,0,0,1-1.13.37H48.61c.05.32.08.56.14.8s.16.64.26,1h.76c.74,0,1.49,0,2.23,0a1.43,1.43,0,0,1,0,2.85c-.18,0-.35,0-.53,0H50.36a12.7,12.7,0,0,0,14.09,5.89A12.87,12.87,0,0,0,61.93,3.14a12.59,12.59,0,0,0-8.59,2.78,12.36,12.36,0,0,0-3.57,4.47c.69,0,1.29,0,1.88,0a2.78,2.78,0,0,1,.73.1,1.41,1.41,0,0,1,0,2.68,2.42,2.42,0,0,1-.68.09H49.17c-.13,0-.27,0-.45,0Z" transform="translate(-2.22 -0.25)"/><path class="cls-1" d="M100.78,30.74H93.36l-1-4.33H82.09l-1.67,4.33H72c.11-.28.18-.5.28-.71L83.76,4.15c.1-.22.21-.44.32-.66a3.56,3.56,0,0,1,3-2,13.49,13.49,0,0,1,1.39-.07h5.82ZM91.06,20.3,88.71,9.56c-.4.56-4.1,10.22-4.13,10.74Z" transform="translate(-2.22 -0.25)"/><path class="cls-1" d="M73.72,2.09l-1.07,6.3c-.25-.09-.43-.14-.6-.21A14.78,14.78,0,0,0,65,7a5.38,5.38,0,0,0-2.24.62,3.59,3.59,0,0,0-.87.66,1.63,1.63,0,0,0,0,2.37,6.7,6.7,0,0,0,1.5,1.16c1,.59,2.12,1.11,3.19,1.65a14.88,14.88,0,0,1,4,2.71,7,7,0,0,1,1.93,6.46,9,9,0,0,1-4.73,6.45,16.16,16.16,0,0,1-6.55,2,27,27,0,0,1-9.24-.71c-.73-.18-1.44-.44-2.23-.69l1.12-6.6.81.35a17.63,17.63,0,0,0,7.6,1.65,7.76,7.76,0,0,0,2.74-.44,5,5,0,0,0,1.45-.82,2.06,2.06,0,0,0,.09-3.16,5.5,5.5,0,0,0-1.16-.88c-1-.56-2-1.07-3.05-1.59a17,17,0,0,1-3.69-2.37,7.21,7.21,0,0,1-.84-10.26,11.78,11.78,0,0,1,6.49-4,20.79,20.79,0,0,1,11.92.36Z" transform="translate(-2.22 -0.25)"/><path class="cls-1" d="M38.42,1.34,25.8,30.69H17.28L10.18,6.41l.12-.06.3.18a33.7,33.7,0,0,1,9.51,9.75,12.48,12.48,0,0,1,1.59,3.84c.08.35.2.7.35,1.24.17-.4.28-.65.38-.9L29.63,2.1c.32-.82.18-.73,1.1-.74l6.75,0Z" transform="translate(-2.22 -0.25)"/><path class="cls-1" d="M41.64,1.37h8l-5,29.36h-8Z" transform="translate(-2.22 -0.25)"/><path class="cls-1" d="M2.25,1.69c-.08-.37,0-.57.31-.59H14c.44,0,.88,0,1.32.06a3,3,0,0,1,2.88,2.48c.46,2,.87,4.11,1.3,6.17q.55,2.65,1.1,5.31a2,2,0,0,1,0,.58C16.89,7.89,10.33,3.8,2.25,1.69Z" transform="translate(-2.22 -0.25)"/></svg>