<svg id="Layer_1" data-name="Layer 1" xmlns="http://www.w3.org/2000/svg" viewBox="0 0 32 31.46"><defs><style>.cls-1{fill:gray;}</style></defs><title>kart</title><path class="cls-1" d="M23.87.27A8.14,8.14,0,1,1,15.73,8.4,8.14,8.14,0,0,1,23.87.27ZM22.24,6.78h-.4c-.82,0-1.64,0-2.46,0a1.57,1.57,0,0,0-1.47,1.48A1.61,1.61,0,0,0,19.16,10a2.44,2.44,0,0,0,.51,0h2.22l.35,0c0,.13,0,.23,0,.33q0,.88,0,1.76c0,.24,0,.49,0,.73a1.62,1.62,0,0,0,3.24-.12c0-.79,0-1.58,0-2.37,0-.11,0-.21,0-.35h.39c.79,0,1.58,0,2.37,0a1.62,1.62,0,0,0,.37-3.17,2.39,2.39,0,0,0-.6-.06H25.83l-.34,0c0-.15,0-.26,0-.37,0-.78,0-1.56,0-2.34a1.62,1.62,0,0,0-2.23-1.49,1.6,1.6,0,0,0-1,1.52c0,.78,0,1.56,0,2.34C22.24,6.53,22.24,6.63,22.24,6.78Z" transform="translate(0 -0.27)"/><path class="cls-1" d="M23.43,20.4,23.68,19c0-.13,0-.26.07-.39a.54.54,0,0,1,.61-.45.53.53,0,0,1,.45.64c-.07.45-.16.9-.24,1.34-.19,1.08-.38,2.15-.58,3.23a1.63,1.63,0,0,1-1.47,1.44l-5.69.92-6.17,1-4.07.66a1.53,1.53,0,0,0-.51.17,1,1,0,0,0-.52,1,1,1,0,0,0,.67.9l.29.1v1a2.25,2.25,0,0,1-.33,0,2.16,2.16,0,0,1-.76-3.92c.13-.09.28-.16.43-.25,0-.26-.08-.52-.13-.77L4,16.3c-.2-1.09-.4-2.19-.6-3.28a1.88,1.88,0,0,0-.16-.52,1.07,1.07,0,0,0-.85-.56L.66,11.68l-.24,0A.53.53,0,0,1,0,11a.54.54,0,0,1,.6-.44c.28,0,.56.07.84.11l1.23.18A2.12,2.12,0,0,1,4.44,12.5c.12.52.2,1.05.3,1.58,0,.09,0,.17.07.3h11a.55.55,0,0,1,.57.55.53.53,0,0,1-.55.53c-.21,0-.42,0-.62,0a17.1,17.1,0,0,0,0,2.66h.31l3-.17.52,0a.55.55,0,0,1,.59.64c0,.3-.05.6-.08.91s-.06.71-.09,1.06c0,.1,0,.2,0,.3A35.54,35.54,0,0,0,23.43,20.4ZM5,15.48c.18,1.09.38,2.13.58,3.19l3.93-.22-.25-3Zm5.6,2.9c1.18-.06,2.32-.12,3.46-.2a16.9,16.9,0,0,0,0-2.69,28.54,28.54,0,0,0-3.68,0ZM9.82,22l-.2-2.42-3.83.22.47,2.6ZM7,26.23l3.19-.52-.23-2.66c-1.17.13-2.31.23-3.47.39Zm12.24-2h.16l3.09-.5a.58.58,0,0,0,.5-.53c.08-.45.16-.9.24-1.34a1.9,1.9,0,0,0,0-.29l-3.8.42Zm-8,1.27A20,20,0,0,0,14.07,25a14.26,14.26,0,0,0,0-2.45l-3,.34Zm2.87-6.16-.15,0-3,.16a1,1,0,0,0-.2.06l.2,2.31,3.18-.35Zm1.13,5.57,2.88-.46c.07-.78.14-1.53.19-2.32l-3.06.35ZM18.36,21c.06-.66.13-1.29.15-2l-3.3.18v2.12Z" transform="translate(0 -0.27)"/><path class="cls-1" d="M21.69,30.1a1.62,1.62,0,1,1-1.62-1.62A1.62,1.62,0,0,1,21.69,30.1Z" transform="translate(0 -0.27)"/><path class="cls-1" d="M9.21,28.47a1.63,1.63,0,1,1-1.62,1.63A1.63,1.63,0,0,1,9.21,28.47Z" transform="translate(0 -0.27)"/><path class="cls-1" d="M17.37,29.56v1c-.28.06-5.22.06-5.46,0v-1C13.73,29.55,15.54,29.57,17.37,29.56Z" transform="translate(0 -0.27)"/><path class="cls-1" d="M22.77,30.63v-1a2,2,0,0,1,.7,0,.53.53,0,0,1,.39.55.51.51,0,0,1-.43.49A5.33,5.33,0,0,1,22.77,30.63Z" transform="translate(0 -0.27)"/><path class="cls-1" d="M24.39,4a1.59,1.59,0,0,1,0,.3q0,1.15,0,2.31c0,.19,0,.38,0,.58,0,.54.18.71.71.72h2.82a2.36,2.36,0,0,1,.33,0,.53.53,0,0,1,0,1.06H25.16a1.59,1.59,0,0,0-.3,0,.52.52,0,0,0-.43.45,2,2,0,0,0,0,.3q0,1.41,0,2.82a1.92,1.92,0,0,1,0,.27.54.54,0,0,1-.51.47.55.55,0,0,1-.55-.43,1.29,1.29,0,0,1,0-.27c0-.5,0-1,0-1.49s0-.91,0-1.37c0-.62-.16-.78-.76-.78H19.46a.53.53,0,0,1,0-1.06,2.27,2.27,0,0,1,.33,0h2.76a1.88,1.88,0,0,0,.33,0,.52.52,0,0,0,.44-.48,2.61,2.61,0,0,0,0-.27c0-1,0-1.9,0-2.85a1.25,1.25,0,0,1,0-.33" transform="translate(0 -0.27)"/></svg>