<svg id="Layer_1" data-name="Layer 1" xmlns="http://www.w3.org/2000/svg" xmlns:xlink="http://www.w3.org/1999/xlink" viewBox="0 0 32 32"><defs><style>.cls-1{fill:url(#linear-gradient);}.cls-2{fill:url(#linear-gradient-2);}</style><linearGradient id="linear-gradient" x1="0.64" y1="16" x2="31.36" y2="16" gradientUnits="userSpaceOnUse"><stop offset="0" stop-color="#a02a21"/><stop offset="1" stop-color="#801003"/></linearGradient><linearGradient id="linear-gradient-2" x1="5.51" y1="15.99" x2="26.5" y2="15.99" xlink:href="#linear-gradient"/></defs><title>clock</title><path class="cls-1" d="M26.86,5.14A15.36,15.36,0,0,0,5.14,26.86,15.36,15.36,0,0,0,26.86,5.14ZM16,28.35A12.36,12.36,0,0,1,3.65,16v0h0A12.36,12.36,0,0,1,15.83,3.65H16a12.35,12.35,0,1,1,0,24.69Z"/><path class="cls-2" d="M25.38,16.74a.91.91,0,1,1,0-1.82h1.1A10.55,10.55,0,0,0,16.78,5.5v1a.91.91,0,1,1-1.82,0V5.52A10.55,10.55,0,0,0,5.51,15h1a.91.91,0,1,1,0,1.82h-1a10.55,10.55,0,0,0,9.58,9.62V25.34a.91.91,0,1,1,1.82,0v1.15a10.55,10.55,0,0,0,9.59-9.75Zm-5.7-3.14-3,3a.91.91,0,0,1-1.29,0l-5.29-5.29a.91.91,0,0,1,1.29-1.29L16,14.71l2.39-2.39a.91.91,0,1,1,1.29,1.29Z"/></svg>