<svg id="Layer_1" data-name="Layer 1" xmlns="http://www.w3.org/2000/svg" viewBox="0 0 32 32"><defs><style>.cls-1{fill:gray;}</style></defs><title>grey-fill</title><path class="cls-1" d="M21.5,8.3a1.1,1.1,0,0,1-1.1-1.1V.6H7.2A3.3,3.3,0,0,0,3.9,3.9V28.1a3.3,3.3,0,0,0,3.3,3.3H24.8a3.3,3.3,0,0,0,3.3-3.3V8.3Zm-.38,11.61-4.67,4.67h0a.63.63,0,0,1-.19.12h0a.64.64,0,0,1-.48,0h0a.63.63,0,0,1-.19-.12h0l-4.67-4.67a.64.64,0,0,1,.9-.9l3.58,3.58v-9.5a.64.64,0,0,1,1.27,0v9.5L20.22,19a.64.64,0,0,1,.9.9Z"/><polygon class="cls-1" points="22.6 1.25 22.6 6.1 27.45 6.1 22.6 1.25"/></svg>