<svg id="Layer_1" data-name="Layer 1" xmlns="http://www.w3.org/2000/svg" viewBox="0 0 32 29.21"><defs><style>.cls-1{fill:#fff;}</style></defs><title>home</title><path class="cls-1" d="M3.93,18.37H1.7a1.59,1.59,0,0,1-1.56-1,1.6,1.6,0,0,1,.37-1.83c.39-.41.8-.8,1.2-1.2.68-.68,1.35-1.36,2-2a.62.62,0,0,0,.2-.51c0-1.34,0-2.68,0-4a2.17,2.17,0,0,1,1.53-2,2.2,2.2,0,0,1,2.42.72,2.54,2.54,0,0,1,.49,1.18l.32-.29L13.5,2.51a3.52,3.52,0,0,1,1.83-1,3.31,3.31,0,0,1,2.94.81c.11.1.21.2.32.31L31.26,15.28a4.64,4.64,0,0,1,.38.4,1.58,1.58,0,0,1,.21,1.7,1.53,1.53,0,0,1-1.4,1c-.55,0-1.1,0-1.66,0h-.43c0,.18,0,.31,0,.44,0,1.87,0,3.73,0,5.6A6.06,6.06,0,0,1,25,29.86a5.69,5.69,0,0,1-2.68.72c-.75,0-1.5,0-2.25,0A1.65,1.65,0,0,1,18.46,29c0-.16,0-.32,0-.48q0-4.82-.06-9.65c0-.16,0-.31,0-.46a32,32,0,0,0-3.89,0c0,.14,0,.3,0,.45q0,4.84,0,9.69c0,.18,0,.37,0,.55A1.59,1.59,0,0,1,13,30.56a21.81,21.81,0,0,1-3.53-.06A6.44,6.44,0,0,1,4,25.34a7.25,7.25,0,0,1-.08-1.17c0-1.78,0-3.56,0-5.34C3.93,18.69,3.93,18.56,3.93,18.37Z" transform="translate(0 -1.4)"/></svg>