<svg id="Layer_1" data-name="Layer 1" xmlns="http://www.w3.org/2000/svg" xmlns:xlink="http://www.w3.org/1999/xlink" viewBox="0 0 31.76 31.76"><defs><style>.cls-1{fill:#fff;}.cls-2{fill:url(#linear-gradient);}.cls-3{fill:url(#linear-gradient-2);}.cls-4{fill:url(#linear-gradient-3);}</style><linearGradient id="linear-gradient" x1="8.22" y1="16" x2="23.78" y2="16" gradientUnits="userSpaceOnUse"><stop offset="0" stop-color="#e14448"/><stop offset="1" stop-color="#a12a21"/></linearGradient><linearGradient id="linear-gradient-2" x1="12.11" y1="16" x2="19.89" y2="16" xlink:href="#linear-gradient"/><linearGradient id="linear-gradient-3" x1="19.24" y1="11.78" x2="21.18" y2="11.78" xlink:href="#linear-gradient"/></defs><title>instagram</title><circle class="cls-1" cx="15.88" cy="15.88" r="15.88"/><path class="cls-2" d="M8.22,16q0-1.89,0-3.78a4.16,4.16,0,0,1,.15-1.14,3.86,3.86,0,0,1,1.33-2,3.81,3.81,0,0,1,2-.82,4.5,4.5,0,0,1,.51,0H19.8a3.87,3.87,0,0,1,2.5.85,3.78,3.78,0,0,1,1.42,2.42,4.68,4.68,0,0,1,.06.74c0,2.52,0,5,0,7.55A3.92,3.92,0,0,1,23.16,22a3.85,3.85,0,0,1-2.23,1.65,4.14,4.14,0,0,1-1.14.15H12.22a4,4,0,0,1-1.86-.43,3.88,3.88,0,0,1-1.72-1.73,4,4,0,0,1-.42-1.83Q8.22,17.89,8.22,16ZM16,22.47h4a2.54,2.54,0,0,0,2-1.19,2.64,2.64,0,0,0,.41-1.49q0-3.54,0-7.08c0-.23,0-.45,0-.68a2.52,2.52,0,0,0-1-2,2.56,2.56,0,0,0-1.64-.55H12.17a2.72,2.72,0,0,0-.49,0A2.54,2.54,0,0,0,9.8,10.95a2.68,2.68,0,0,0-.28,1.26q0,3.57,0,7.13c0,.21,0,.43,0,.64a2.53,2.53,0,0,0,1.2,2.09,2.58,2.58,0,0,0,1.47.4Z" transform="translate(-0.12 -0.12)"/><path class="cls-3" d="M19.89,16A3.89,3.89,0,1,1,16,12.11,3.89,3.89,0,0,1,19.89,16Zm-1.3,0A2.59,2.59,0,1,0,16,18.59,2.58,2.58,0,0,0,18.59,16Z" transform="translate(-0.12 -0.12)"/><path class="cls-4" d="M20.22,12.75a1,1,0,1,1,1-1A1,1,0,0,1,20.22,12.75Z" transform="translate(-0.12 -0.12)"/></svg>