<svg id="Layer_1" data-name="Layer 1" xmlns="http://www.w3.org/2000/svg" viewBox="0 0 32 32"><defs><style>.cls-1{fill:gray;}</style></defs><title>my-courses</title><path class="cls-1" d="M31.11,26.68H.89A.89.89,0,0,1,0,25.79V6.37a.89.89,0,0,1,.89-.89H15.54a.89.89,0,1,1,0,1.78H1.78V24.9H30.22V7.25H27.31a.89.89,0,0,1,0-1.78h3.8a.89.89,0,0,1,.89.89V25.79A.89.89,0,0,1,31.11,26.68Zm-18.21-4A.89.89,0,0,1,12,21.8V10.36a.89.89,0,0,1,1.41-.72l8,5.72a.89.89,0,0,1,0,1.45l-8,5.72A.89.89,0,0,1,12.91,22.69Zm.89-10.61v8l5.59-4Z"/><circle class="cls-1" cx="18.37" cy="6.41" r="1.09"/><circle class="cls-1" cx="21.28" cy="6.41" r="1.09"/><circle class="cls-1" cx="24.19" cy="6.41" r="1.09"/></svg>