<svg id="Layer_1" data-name="Layer 1" xmlns="http://www.w3.org/2000/svg" viewBox="0 0 32 32"><defs><style>.cls-1{fill:gray;}</style></defs><title>my-profile</title><path class="cls-1" d="M24.37,32H22.15a.83.83,0,0,1-.28,0,2.05,2.05,0,0,1-1.44-2.09,3.12,3.12,0,0,1,0-.39c0-.06,0-.15,0-.21l-.2-.1h0l-.41.18-.45.2a1.91,1.91,0,0,1-2.53-.81q-.43-.73-.85-1.47a1.91,1.91,0,0,1,.54-2.55l.41-.29.36-.26c0-.09,0-.19,0-.28l-.37-.27-.38-.27a1.9,1.9,0,0,1-.56-2.57q.42-.74.85-1.47a1.92,1.92,0,0,1,2.5-.81l.45.2.4.18a1.73,1.73,0,0,1,.25-.14,5.94,5.94,0,0,1,0-.59c0-.08,0-.15,0-.23a1.93,1.93,0,0,1,2-1.86h1.64a1.9,1.9,0,0,1,2,1.84V18c0,.25,0,.49.07.74a1.22,1.22,0,0,1,.26.16,4.5,4.5,0,0,1,.71-.34l.17-.07a1.9,1.9,0,0,1,2.44.78q.46.76.89,1.54a1.9,1.9,0,0,1-.56,2.52l-.4.29-.36.26V24c0,.07,0,.14,0,.21l.73.53a1.92,1.92,0,0,1,.55,2.57q-.42.74-.85,1.47a1.92,1.92,0,0,1-2.51.8l-.83-.37-.25.15c0,.35-.06.67-.1,1A2,2,0,0,1,24.64,32,.83.83,0,0,1,24.37,32Zm-2.06-1.66h1.9c.19-.09.2-.17.21-.26,0-.33.08-.68.1-1a1.26,1.26,0,0,1,.83-1.21,1.63,1.63,0,0,0,.34-.21,1.12,1.12,0,0,1,1.2-.11l1,.47c.21.09.31.06.42-.13q.42-.71.83-1.43a.28.28,0,0,0-.09-.43c-.3-.22-.59-.44-.9-.64a1.13,1.13,0,0,1-.52-1.11,2.06,2.06,0,0,0,0-.28c0-.14,0-.27,0-.41a1.27,1.27,0,0,1,.44-.88c.2-.16.4-.3.61-.45l.37-.27c.19-.14.18-.26.1-.4q-.42-.75-.86-1.49a.26.26,0,0,0-.38-.11l-.19.08a3.12,3.12,0,0,0-.46.21,1.52,1.52,0,0,1-1.89-.11A1.72,1.72,0,0,1,25,20a1.27,1.27,0,0,1-.49-.78c-.05-.36-.08-.72-.11-1.07V18c0-.27-.12-.32-.33-.33H22.48c-.29,0-.36.06-.38.35,0,.09,0,.18,0,.27a3.74,3.74,0,0,0,0,.46,1.44,1.44,0,0,1-1,1.46l0,0a2.14,2.14,0,0,1-.31.19,1.19,1.19,0,0,1-.93,0l-.7-.3L18.62,20a.28.28,0,0,0-.42.14q-.42.71-.83,1.43c-.1.17-.1.28.1.43l.35.25c.21.15.41.29.61.45a1.27,1.27,0,0,1,.45.87,5.68,5.68,0,0,1,0,.87,1.25,1.25,0,0,1-.45.88c-.19.15-.4.3-.6.44l-.37.27a.27.27,0,0,0-.09.42c.27.48.55,1,.83,1.43.12.2.22.23.44.14l.43-.19.66-.29a1.15,1.15,0,0,1,1,0l.19.09a2,2,0,0,1,.92.69,2,2,0,0,1,.26,1.06c0,.08,0,.16,0,.23a1.59,1.59,0,0,1,0,.24C22.09,30.16,22.16,30.27,22.31,30.34Z"/><path class="cls-1" d="M14,11.85h0a5.92,5.92,0,1,1,4.2-1.72A5.92,5.92,0,0,1,14,11.85ZM9,5.91h.83A4.26,4.26,0,1,0,14,1.66,4.27,4.27,0,0,0,9.78,5.91Z"/><path class="cls-1" d="M23.26,27.35A3.31,3.31,0,0,1,19.93,24a3.34,3.34,0,0,1,3.31-3.32h0A3.36,3.36,0,0,1,26.6,24a3.34,3.34,0,0,1-3.33,3.31h0Zm0-5h0a1.69,1.69,0,0,0-1.18,2.87,1.66,1.66,0,0,0,1.19.49h0A1.68,1.68,0,0,0,24.94,24a1.71,1.71,0,0,0-1.68-1.69Z"/><path class="cls-1" d="M13.4,28.36H2a.83.83,0,0,1-.83-.83V21.22a6,6,0,0,1,6-6h9.65a.83.83,0,0,1,0,1.66H7.08a4.31,4.31,0,0,0-4.3,4.3v5.49H13.4a.83.83,0,0,1,0,1.66Z"/></svg>