<svg id="Layer_1" data-name="Layer 1" xmlns="http://www.w3.org/2000/svg" viewBox="0 0 32 32"><defs><style>.cls-1{fill:gray;}</style></defs><title>people</title><path class="cls-1" d="M20.13,16.94a5.48,5.48,0,0,1,1.42,3.4c0,.4,0,.8,0,1.19a.9.9,0,0,1-1,.94H11.34a.88.88,0,0,1-.95-.85,6.15,6.15,0,0,1,.78-3.81c.19-.31.42-.59.64-.89A5.64,5.64,0,0,0,20.13,16.94Z"/><path class="cls-1" d="M26.19,16.92a3.7,3.7,0,1,1,0-7.4,3.7,3.7,0,1,1,0,7.4Z"/><path class="cls-1" d="M15.94,16.92a3.7,3.7,0,1,1,3.76-3.68A3.7,3.7,0,0,1,15.94,16.92Z"/><path class="cls-1" d="M5.76,16.92a3.7,3.7,0,1,1,3.69-3.69A3.7,3.7,0,0,1,5.76,16.92Z"/><path class="cls-1" d="M23.27,22.46A7.42,7.42,0,0,0,23.38,20a7.34,7.34,0,0,0-.63-2.38c2.73,1.8,5.26,1.53,7.66-.64.18.23.38.47.55.73a5.23,5.23,0,0,1,.85,2.72c0,.39,0,.78,0,1.16a.89.89,0,0,1-.92.9H23.27Z"/><path class="cls-1" d="M8.65,22.47h-.3c-2.37,0-4.73,0-7.1,0A1,1,0,0,1,.19,21.41,10.48,10.48,0,0,1,.3,19.57,5.58,5.58,0,0,1,1.55,17L1.64,17a5.55,5.55,0,0,0,7.55.61c-.13.36-.25.66-.34,1a7.74,7.74,0,0,0-.22.95,9,9,0,0,0-.09,1,9.69,9.69,0,0,0,0,1C8.56,21.78,8.61,22.11,8.65,22.47Z"/></svg>