<svg id="Layer_1" data-name="Layer 1" xmlns="http://www.w3.org/2000/svg" viewBox="0 0 31.55 31.55"><defs><style>.cls-1{fill:#fff;}</style></defs><title>sign in</title><path class="cls-1" d="M11.42,23.22a9.47,9.47,0,0,0,.31,2.35c.2.75.47,1.48.71,2.24l-.19,0c-2.8,0-5.6,0-8.4,0A3.57,3.57,0,0,1,.35,25.11a4,4,0,0,1-.11-1c0-5.42,0-10.85,0-16.27a3.65,3.65,0,0,1,3.1-3.65,5,5,0,0,1,.56,0l.28,0c0,.12,0,.23,0,.34,0,.47,0,.94,0,1.42a3.58,3.58,0,0,0,3.2,3.45,6.87,6.87,0,0,0,.72,0h6.72a3.71,3.71,0,0,0,2.48-.83,3.54,3.54,0,0,0,1.32-2.69c0-.46,0-.92,0-1.38,0-.11,0-.21,0-.34a3,3,0,0,1,1.1.06,3.56,3.56,0,0,1,2.83,3.31c.05,1.25,0,2.5,0,3.75a.4.4,0,0,1,0,.09l-.89.08A10.48,10.48,0,0,0,18,12.53a1.85,1.85,0,0,1-.85.19h-12a1,1,0,0,0,0,1.94,3.88,3.88,0,0,0,.43,0h9.34c-.08.11-.12.18-.18.23a10.63,10.63,0,0,0-1.42,1.81.48.48,0,0,1-.48.26H5.47a2.57,2.57,0,0,0-.52,0,1,1,0,0,0-.76,1,1,1,0,0,0,.86.9,3.6,3.6,0,0,0,.43,0h6.59l-.57,2.3H5.42a2.13,2.13,0,0,0-.52.05,1,1,0,0,0-.71,1,1,1,0,0,0,.9.86h6.33Z" transform="translate(-0.22 -0.23)"/><path class="cls-1" d="M22.95,14A8.87,8.87,0,1,1,14,22.85,8.87,8.87,0,0,1,22.95,14ZM21.52,23.6l-1.17-1.17c-.19-.19-.37-.38-.57-.55a1.29,1.29,0,0,0-2,.38,1.27,1.27,0,0,0,.26,1.62q1.26,1.28,2.54,2.54a1.3,1.3,0,0,0,2-.09l4.45-5.08a2,2,0,0,0,.29-.43,1.22,1.22,0,0,0-.15-1.36A1.24,1.24,0,0,0,25.92,19a1.48,1.48,0,0,0-.84.54l-2.36,2.7Z" transform="translate(-0.22 -0.23)"/><path class="cls-1" d="M7.92,2.82a3.64,3.64,0,0,1,7,0h1.4a1,1,0,0,1,.78.36.92.92,0,0,1,.22.6c0,.71,0,1.43,0,2.14A2.3,2.3,0,0,1,15,8.12c-.65,0-1.3,0-1.94,0H7.87A2.28,2.28,0,0,1,5.76,6.89a1.94,1.94,0,0,1-.26-.94c0-.7,0-1.41,0-2.11a1,1,0,0,1,1-1H7.86Z" transform="translate(-0.22 -0.23)"/></svg>