<svg id="Layer_1" data-name="Layer 1" xmlns="http://www.w3.org/2000/svg" xmlns:xlink="http://www.w3.org/1999/xlink" viewBox="0 0 31.5 31.5"><defs><style>.cls-1{fill:#fff;}.cls-2{fill:url(#linear-gradient);}</style><linearGradient id="linear-gradient" x1="7.78" y1="16" x2="24.22" y2="16" gradientUnits="userSpaceOnUse"><stop offset="0" stop-color="#e14448"/><stop offset="1" stop-color="#a12a21"/></linearGradient></defs><title>snapchat</title><circle class="cls-1" cx="15.75" cy="15.75" r="15.75"/><path class="cls-2" d="M20.45,14.63a1.91,1.91,0,0,0,.37,0,2.65,2.65,0,0,0,.48-.15,1,1,0,0,1,.94.08.58.58,0,0,1,.12,1,1.73,1.73,0,0,1-.67.39l-.68.25a1.18,1.18,0,0,0-.28.17.42.42,0,0,0-.16.45,1.14,1.14,0,0,0,.06.22,5.09,5.09,0,0,0,2,2.35,3.3,3.3,0,0,0,1,.4l.25.06a.38.38,0,0,1,.25.54.82.82,0,0,1-.29.33,3.23,3.23,0,0,1-.71.32c-.38.11-.77.19-1.18.28,0,.19-.11.39-.15.59a.5.5,0,0,1-.64.43c-.33-.05-.66-.11-1-.12a2.35,2.35,0,0,0-1.59.46c-.2.15-.42.28-.62.43a3.48,3.48,0,0,1-4,0l-.68-.47a2.51,2.51,0,0,0-1.8-.4c-.21,0-.41.07-.62.1l-.25,0a.4.4,0,0,1-.44-.3,2.93,2.93,0,0,1-.13-.51c0-.2-.13-.26-.32-.29A4.91,4.91,0,0,1,8.5,20.9a2.55,2.55,0,0,1-.42-.23.76.76,0,0,1-.21-.21.41.41,0,0,1,.27-.67,5.56,5.56,0,0,0,1-.32,4.68,4.68,0,0,0,2-2,4.16,4.16,0,0,0,.26-.52.5.5,0,0,0-.26-.72,5,5,0,0,0-.51-.21,7,7,0,0,1-.65-.27,1.35,1.35,0,0,1-.39-.31.53.53,0,0,1,.06-.78.88.88,0,0,1,1-.18,3.48,3.48,0,0,0,.5.16.59.59,0,0,0,.45,0c0-.19,0-.38,0-.58,0-.55,0-1.11,0-1.66a4.06,4.06,0,0,1,3.08-3.87,5.11,5.11,0,0,1,3.7.33,4.1,4.1,0,0,1,2,2.33,4.23,4.23,0,0,1,.19,1.47c0,.57,0,1.14-.07,1.71C20.44,14.42,20.45,14.51,20.45,14.63Z" transform="translate(-0.25 -0.25)"/></svg>