<svg id="Layer_1" data-name="Layer 1" xmlns="http://www.w3.org/2000/svg" viewBox="0 0 32 32"><defs><style>.cls-1{fill:gray;}</style></defs><title>The-basket</title><path class="cls-1" d="M23.23,17.6h0a8.55,8.55,0,0,1,0-17.1h0a8.55,8.55,0,0,1,6,14.61A8.46,8.46,0,0,1,23.23,17.6Zm0-15.67a7.12,7.12,0,0,0,0,14.23h0A7.11,7.11,0,0,0,30.32,9a7.12,7.12,0,0,0-7.11-7.11Zm0-.72h0Zm0,14.29a2.28,2.28,0,0,1-2.27-2.11c0-.19,0-.39,0-.58V11.33H19.17a3,3,0,0,1-.64-.06,2.28,2.28,0,0,1-1.76-2.4,2.23,2.23,0,0,1,2.1-2.08c.57,0,1.14,0,1.68,0h.38V6.46c0-.53,0-1.06,0-1.58A2.28,2.28,0,0,1,24.47,3a2.28,2.28,0,0,1,1,1.87c0,.53,0,1.05,0,1.58v.35h1.74a3,3,0,0,1,.76.09,2.28,2.28,0,0,1,1.65,2.51,2.25,2.25,0,0,1-2.18,2h-2v.42c0,.49,0,1,0,1.48a2.27,2.27,0,0,1-1.69,2.19A2.3,2.3,0,0,1,23.21,15.51ZM21.31,9.9h.38a.72.72,0,0,1,.68.72v2.2c0,.15,0,.31,0,.46a.83.83,0,0,0,.35.63.84.84,0,0,0,1.33-.7c0-.49,0-1,0-1.46v-.81c0-.08,0-.17,0-.26v-.11a.72.72,0,0,1,.72-.68h2.64a.83.83,0,0,0,.78-.7.84.84,0,0,0-.6-.95,1.71,1.71,0,0,0-.4,0h-2.5a.72.72,0,0,1-.67-.72V6.41c0-.51,0-1,0-1.53a.87.87,0,0,0-.38-.71.85.85,0,0,0-.79-.07.82.82,0,0,0-.52.8c0,.52,0,1,0,1.56v1a.72.72,0,0,1-.72.72h-1.1c-.53,0-1.08,0-1.61,0A.8.8,0,0,0,18.2,9a.83.83,0,0,0,.64.89,1.77,1.77,0,0,0,.34,0h2.13Z"/><path class="cls-1" d="M22.79,20.6,23,19.26c0-.12,0-.25.07-.37a.52.52,0,0,1,.59-.44.51.51,0,0,1,.43.62c-.07.43-.15.86-.23,1.29-.18,1-.37,2.07-.55,3.11a1.57,1.57,0,0,1-1.41,1.38l-5.48.88-5.94,1-3.92.63a1.47,1.47,0,0,0-.49.16,1,1,0,0,0-.5,1,1,1,0,0,0,.65.86l.28.09v1a2.17,2.17,0,0,1-.32,0,2.08,2.08,0,0,1-.73-3.78c.13-.08.27-.16.42-.24,0-.25-.08-.5-.13-.75l-1.64-9c-.19-1.05-.38-2.11-.58-3.16A1.81,1.81,0,0,0,3.4,13a1,1,0,0,0-.82-.54L.87,12.2l-.23,0a.51.51,0,0,1-.39-.59.52.52,0,0,1,.57-.43c.27,0,.54.07.81.11l1.18.17A2,2,0,0,1,4.52,13c.12.5.19,1,.29,1.52,0,.08,0,.17.06.29H15.5a.53.53,0,0,1,.55.53.51.51,0,0,1-.53.51c-.2,0-.41,0-.6,0a16.46,16.46,0,0,0,0,2.56h.3l2.92-.16.5,0a.53.53,0,0,1,.57.61c0,.29,0,.58-.07.87s-.06.68-.08,1c0,.1,0,.19,0,.29A34.21,34.21,0,0,0,22.79,20.6ZM5.06,15.86c.18,1.05.36,2,.55,3.07l3.79-.21-.24-2.86Zm5.39,2.8c1.14-.06,2.24-.11,3.33-.19a16.27,16.27,0,0,0,0-2.59,27.47,27.47,0,0,0-3.54,0Zm-.76,3.44-.2-2.33L5.81,20l.45,2.5ZM6.93,26.2l3.07-.5-.22-2.56c-1.13.13-2.22.22-3.34.37Zm11.78-1.94h.15l3-.48a.56.56,0,0,0,.48-.51c.07-.43.15-.86.23-1.29a1.83,1.83,0,0,0,0-.28l-3.66.4ZM11,25.48a19.25,19.25,0,0,0,2.75-.43,13.73,13.73,0,0,0,0-2.36L10.82,23Zm2.76-5.93-.14,0-2.91.16a.92.92,0,0,0-.19.06l.2,2.22,3.06-.34Zm1.08,5.36,2.77-.45c.07-.75.13-1.47.18-2.23l-2.95.33Zm3-3.74c.06-.64.13-1.24.14-1.89l-3.18.18v2Z"/><path class="cls-1" d="M21.12,29.93a1.56,1.56,0,1,1-1.56-1.56A1.56,1.56,0,0,1,21.12,29.93Z"/><path class="cls-1" d="M9.11,28.37a1.57,1.57,0,1,1-1.56,1.57A1.57,1.57,0,0,1,9.11,28.37Z"/><path class="cls-1" d="M17,29.41v1c-.27.06-5,.06-5.25,0v-1C13.46,29.4,15.2,29.42,17,29.41Z"/><path class="cls-1" d="M22.16,30.44v-1a2,2,0,0,1,.68,0,.51.51,0,0,1,.38.53.49.49,0,0,1-.41.47A5.13,5.13,0,0,1,22.16,30.44Z"/></svg>