<svg id="Layer_1" data-name="Layer 1" xmlns="http://www.w3.org/2000/svg" viewBox="0 0 32 32"><defs><style>.cls-1{fill:gray;}</style></defs><title>clock</title><path class="cls-1" d="M27.06,4.94A15.65,15.65,0,0,0,4.94,27.06,15.65,15.65,0,0,0,27.06,4.94ZM16,28.58A12.59,12.59,0,0,1,3.42,16v0h0A12.59,12.59,0,0,1,15.83,3.43H16a12.58,12.58,0,1,1,0,25.15Z"/><path class="cls-1" d="M25.55,16.76a.93.93,0,1,1,0-1.85h1.12A10.74,10.74,0,0,0,16.8,5.3v1a.93.93,0,1,1-1.85,0V5.33A10.74,10.74,0,0,0,5.32,15h1a.93.93,0,1,1,0,1.85h-1a10.74,10.74,0,0,0,9.76,9.8V25.51a.93.93,0,1,1,1.85,0v1.17a10.74,10.74,0,0,0,9.77-9.93Zm-5.8-3.19-3.09,3.09a.93.93,0,0,1-1.31,0L10,11.27A.93.93,0,1,1,11.27,10L16,14.69l2.44-2.44a.93.93,0,1,1,1.31,1.31Z"/></svg>