<svg id="Layer_1" data-name="Layer 1" xmlns="http://www.w3.org/2000/svg" xmlns:xlink="http://www.w3.org/1999/xlink" viewBox="0 0 31.8 31.8"><defs><style>.cls-1{fill:#f2f2f2;}.cls-2{fill:url(#linear-gradient);}</style><linearGradient id="linear-gradient" x1="7.89" y1="16" x2="24.11" y2="16" gradientUnits="userSpaceOnUse"><stop offset="0" stop-color="#e14448"/><stop offset="1" stop-color="#a12a21"/></linearGradient></defs><title>twitter</title><circle class="cls-1" cx="15.9" cy="15.9" r="15.9"/><path class="cls-2" d="M23.66,9.68a3.44,3.44,0,0,1-1.37,1.76A6.33,6.33,0,0,0,24.11,11l-.07.12a6.36,6.36,0,0,1-1.46,1.51.25.25,0,0,0-.12.24,9.4,9.4,0,0,1-.94,4.42,9.3,9.3,0,0,1-3.62,4.06,9,9,0,0,1-3.09,1.16,10.14,10.14,0,0,1-2.13.16A9.39,9.39,0,0,1,8,21.23l-.07,0,0,0a6.7,6.7,0,0,0,4.84-1.38,3.48,3.48,0,0,1-1.88-.69,3.34,3.34,0,0,1-1.18-1.63l.71,0a2.23,2.23,0,0,0,.71-.1,3.77,3.77,0,0,1-1.34-.66,3.39,3.39,0,0,1-.94-1.17A3.42,3.42,0,0,1,8.48,14a3.51,3.51,0,0,0,1.49.4,3.41,3.41,0,0,1-1.39-2A3.33,3.33,0,0,1,9,10a9.52,9.52,0,0,0,6.89,3.5l0-.3a3.35,3.35,0,0,1,2.81-3.77,3.27,3.27,0,0,1,2.84.91.26.26,0,0,0,.27.07,6.73,6.73,0,0,0,1.8-.69l.1-.05Z" transform="translate(-0.1 -0.1)"/></svg>