<svg id="Layer_1" data-name="Layer 1" xmlns="http://www.w3.org/2000/svg" viewBox="0 0 31.15 25.44"><defs><style>.cls-1{fill:#fff;}</style></defs><title>twitter</title><path class="cls-1" d="M30.71,3.87a6.6,6.6,0,0,1-2.63,3.38,12.14,12.14,0,0,0,3.49-.93c-.06.12-.09.18-.13.24a12.21,12.21,0,0,1-2.8,2.9.48.48,0,0,0-.23.46,18,18,0,0,1-1.81,8.48,17.86,17.86,0,0,1-6.94,7.79,17.21,17.21,0,0,1-5.93,2.23,19.47,19.47,0,0,1-4.1.31A18,18,0,0,1,.63,26L.5,26l-.07-.09a12.86,12.86,0,0,0,9.29-2.64A6.69,6.69,0,0,1,6.1,21.9a6.41,6.41,0,0,1-2.27-3.13c.47,0,.92,0,1.37,0a4.28,4.28,0,0,0,1.36-.19A7.24,7.24,0,0,1,4,17.34a6.5,6.5,0,0,1-1.8-2.25,6.57,6.57,0,0,1-.64-2.85A6.73,6.73,0,0,0,4.43,13,6.54,6.54,0,0,1,1.77,9.09a6.38,6.38,0,0,1,.72-4.63,18.28,18.28,0,0,0,13.22,6.71c0-.22-.06-.4-.08-.58A6.42,6.42,0,0,1,21,3.36,6.28,6.28,0,0,1,26.47,5.1a.5.5,0,0,0,.52.14,12.92,12.92,0,0,0,3.46-1.33l.2-.1Z" transform="translate(-0.43 -3.28)"/></svg>