<svg id="Layer_1" data-name="Layer 1" xmlns="http://www.w3.org/2000/svg" xmlns:xlink="http://www.w3.org/1999/xlink" viewBox="0 0 32 32"><defs><style>.cls-1{fill:#fff;}.cls-2{fill:url(#linear-gradient);}</style><linearGradient id="linear-gradient" x1="8.11" y1="16" x2="23.93" y2="16" gradientUnits="userSpaceOnUse"><stop offset="0" stop-color="#e14448"/><stop offset="1" stop-color="#a12a21"/></linearGradient></defs><title>Untitled-2</title><circle class="cls-1" cx="16.02" cy="16" r="16"/><path class="cls-2" d="M21.63,10.36a7.88,7.88,0,0,0-12.4,9.51L8.11,24l4.18-1.1a7.87,7.87,0,0,0,3.77,1h0a7.88,7.88,0,0,0,5.57-13.45ZM16.05,22.48h0a6.54,6.54,0,0,1-3.33-.91l-.24-.14L10,22.08l.66-2.42-.16-.25a6.55,6.55,0,1,1,5.55,3.07Zm3.59-4.91c-.2-.1-1.16-.57-1.35-.64s-.31-.1-.44.1-.51.64-.62.77-.23.15-.43,0a5.38,5.38,0,0,1-1.58-1,5.94,5.94,0,0,1-1.1-1.36c-.11-.2,0-.29.09-.4a5.57,5.57,0,0,0,.49-.67.36.36,0,0,0,0-.34c0-.1-.44-1.07-.61-1.46s-.32-.33-.44-.34h-.38a.72.72,0,0,0-.53.25A2.21,2.21,0,0,0,12,14.18a3.83,3.83,0,0,0,.8,2,8.78,8.78,0,0,0,3.36,3,11.27,11.27,0,0,0,1.12.41,2.7,2.7,0,0,0,1.24.08,2,2,0,0,0,1.33-.94,1.65,1.65,0,0,0,.11-.94C20,17.73,19.84,17.68,19.65,17.58Z"/></svg>