<svg id="Layer_1" data-name="Layer 1" xmlns="http://www.w3.org/2000/svg" viewBox="0 0 32 32"><defs><style>.cls-1{fill:#fff;}</style></defs><title>Untitled-2</title><path class="cls-1" d="M27,5.51A15.36,15.36,0,0,0,2.77,24L.59,32l8.14-2.14a15.34,15.34,0,0,0,7.34,1.87h0A15.37,15.37,0,0,0,27,5.51ZM16.08,29.14h0a12.75,12.75,0,0,1-6.5-1.78l-.47-.28L4.28,28.35l1.29-4.71-.3-.48a12.77,12.77,0,1,1,10.82,6Zm7-9.56c-.38-.19-2.27-1.12-2.62-1.25s-.61-.19-.86.19-1,1.25-1.22,1.5-.45.29-.83.1a10.48,10.48,0,0,1-3.09-1.91,11.58,11.58,0,0,1-2.14-2.66c-.22-.38,0-.57.17-.78a10.86,10.86,0,0,0,1-1.31.71.71,0,0,0,0-.67c-.1-.19-.86-2.08-1.18-2.85s-.63-.65-.86-.66h-.74a1.41,1.41,0,0,0-1,.48,4.3,4.3,0,0,0-1.34,3.2,7.47,7.47,0,0,0,1.57,4c.19.26,2.71,4.13,6.56,5.8a22,22,0,0,0,2.19.81,5.26,5.26,0,0,0,2.42.15,4,4,0,0,0,2.59-1.83A3.21,3.21,0,0,0,23.82,20C23.73,19.87,23.47,19.77,23.09,19.58Z"/></svg>