<svg id="Layer_1" data-name="Layer 1" xmlns="http://www.w3.org/2000/svg" viewBox="0 0 32 32"><defs><style>.cls-1{fill:#fff;}</style></defs><title>wightX</title><path class="cls-1" d="M16,32A16,16,0,1,1,32,16,16,16,0,0,1,16,32Zm.08-11.41a3.83,3.83,0,0,0,.29.37l3.1,3.1a2.13,2.13,0,0,0,.36.31A1,1,0,0,0,21,24.2c1-1,2.09-2.08,3.14-3.12a1.36,1.36,0,0,0,.16-.2,1,1,0,0,0,0-1.15,3,3,0,0,0-.3-.32l-3-3L20.64,16l.35-.37,3.1-3.1a1.21,1.21,0,0,0,.42-.79,1.13,1.13,0,0,0-.41-.89l-3-3a1.08,1.08,0,0,0-1.68,0,43.48,43.48,0,0,1-3,3.15,3.11,3.11,0,0,0-.3.42L15.64,11l-3-3-.16-.15a1,1,0,0,0-1.58,0L7.83,10.92l-.15.16a1,1,0,0,0,0,1.22,3.55,3.55,0,0,0,.3.32l3,3,.38.4a4.44,4.44,0,0,0-.42.32Q9.41,18,7.83,19.54A1,1,0,0,0,7.73,21l.1.1Q9.38,22.63,11,24.18a1.24,1.24,0,0,0,.48.29,1,1,0,0,0,1.07-.33L15.65,21Z"/><path class="cls-1" d="M21.13,10.79h0a1.27,1.27,0,0,1,0,1.79L18.68,15a3.67,3.67,0,0,0-.27.29,1,1,0,0,0,0,1.25,4.79,4.79,0,0,0,.36.38c.59.59,1.62,1.6,2.38,2.33a1.27,1.27,0,0,1,0,1.8h0a1.27,1.27,0,0,1-1.78,0L17,18.78l-.25-.25a1,1,0,0,0-1.41,0l0,0c-.43.42-1.68,1.69-2.59,2.6a1.27,1.27,0,0,1-1.8,0h0a1.27,1.27,0,0,1,0-1.79L13.17,17l.25-.25a1,1,0,0,0,.11-1.41l-.11-.11c-.27-.29-.56-.56-.84-.84l-1.77-1.77a1.27,1.27,0,0,1,0-1.79h0a1.27,1.27,0,0,1,1.78,0L15,13.28a3.17,3.17,0,0,0,.29.27,1,1,0,0,0,1.21,0,3.41,3.41,0,0,0,.32-.3c.61-.61,1.66-1.68,2.41-2.45a1.27,1.27,0,0,1,1.79-.06Z"/></svg>