<svg id="Layer_1" data-name="Layer 1" xmlns="http://www.w3.org/2000/svg" viewBox="0 0 31.8 31.8"><defs><style>.cls-1{fill:#fff;}</style></defs><title>xss</title><path class="cls-1" d="M1630.48,988.28a9.55,9.55,0,0,0,.31,2.37c.2.75.47,1.49.71,2.26l-.19,0c-2.82,0-5.64,0-8.47,0a3.6,3.6,0,0,1-3.52-2.74,4.08,4.08,0,0,1-.11-1c0-5.47,0-10.93,0-16.4a3.67,3.67,0,0,1,3.13-3.68,5.07,5.07,0,0,1,.56,0l.28,0c0,.12,0,.23,0,.34,0,.48,0,1,0,1.43a3.6,3.6,0,0,0,3.22,3.48,6.92,6.92,0,0,0,.73,0h6.77a3.74,3.74,0,0,0,2.49-.84,3.56,3.56,0,0,0,1.33-2.71c0-.46,0-.93,0-1.39,0-.11,0-.22,0-.34a3,3,0,0,1,1.11.06,3.59,3.59,0,0,1,2.85,3.33c.05,1.26,0,2.52,0,3.78a.4.4,0,0,1,0,.09l-.9.08a10.56,10.56,0,0,0-3.71,1.06,1.86,1.86,0,0,1-.86.2H1624.1a1,1,0,0,0,0,2,3.91,3.91,0,0,0,.43,0h9.42c-.08.11-.13.18-.18.24a10.71,10.71,0,0,0-1.43,1.82.49.49,0,0,1-.48.26h-7.34a2.59,2.59,0,0,0-.53,0,1,1,0,0,0-.76,1,1,1,0,0,0,.86.91,3.63,3.63,0,0,0,.43,0h6.64l-.58,2.32h-6.11a2.15,2.15,0,0,0-.53.05,1,1,0,0,0-.72,1.06,1,1,0,0,0,.9.87h6.38Z" transform="translate(-1619.2 -965.1)"/><path class="cls-1" d="M1642.1,979a8.94,8.94,0,1,1-9,8.89A8.94,8.94,0,0,1,1642.1,979Zm-1.43,9.65-1.18-1.18c-.19-.19-.37-.38-.58-.55a1.3,1.3,0,0,0-2,.38,1.28,1.28,0,0,0,.27,1.63q1.27,1.29,2.56,2.56a1.31,1.31,0,0,0,2-.09l4.48-5.12a2,2,0,0,0,.3-.44,1.23,1.23,0,0,0-.16-1.37,1.25,1.25,0,0,0-1.3-.47,1.49,1.49,0,0,0-.85.54l-2.38,2.72Z" transform="translate(-1619.2 -965.1)"/><path class="cls-1" d="M1627,967.72a3.67,3.67,0,0,1,7,0h1.41a1,1,0,0,1,.78.37.93.93,0,0,1,.22.61c0,.72,0,1.44,0,2.16a2.32,2.32,0,0,1-2.28,2.16c-.65,0-1.31,0-2,0h-5.28a2.3,2.3,0,0,1-2.12-1.24,2,2,0,0,1-.27-.95c0-.71,0-1.42,0-2.12a1,1,0,0,1,1-1h1.36Z" transform="translate(-1619.2 -965.1)"/></svg>