<svg id="Layer_1" data-name="Layer 1" xmlns="http://www.w3.org/2000/svg" xmlns:xlink="http://www.w3.org/1999/xlink" viewBox="0 0 1800 1800"><defs><style>.cls-1{fill:#aaaaa9;}.cls-2{fill:url(#linear-gradient);}.cls-3{fill:url(#linear-gradient-2);}.cls-4{fill:url(#linear-gradient-3);}</style><linearGradient id="linear-gradient" x1="504.86" y1="-4083.6" x2="574.57" y2="-4083.6" gradientTransform="matrix(1, 0, 0, -1, 0, -3544)" gradientUnits="userSpaceOnUse"><stop offset="0" stop-color="#e14448"/><stop offset="1" stop-color="#a12a21"/></linearGradient><linearGradient id="linear-gradient-2" x1="550.03" y1="-4443.9" x2="1250.15" y2="-4443.9" xlink:href="#linear-gradient"/><linearGradient id="linear-gradient-3" x1="355.49" y1="-4444" x2="1444.51" y2="-4444" xlink:href="#linear-gradient"/></defs><title>Untitled-2</title><rect class="cls-1" width="1800" height="1800"/><path class="cls-2" d="M539.16,504.75a34.86,34.86,0,1,1-34.3,35.62C504.61,520.91,520,504.89,539.16,504.75Z"/><path class="cls-3" d="M764.92,888.18c-61.5-53.48-89.53-119.42-80-198.77,6.53-54.25,32.14-99.8,73.75-135.58,80-68.88,196.08-71.28,279.89-2.64,33.85,27.72,56.8,63.25,69.56,105.25s11.84,84.29-1,126.05-37.19,76.19-72,105.32c4.69,2.3,7.25,3.81,10,4.86,50.42,19.43,94.47,48.63,133.34,86,26,25,47.63,53.39,66,84.37,8.09,13.67,7.35,27.1-.69,40.63a397.22,397.22,0,0,1-258.46,186.25,402.43,402.43,0,0,1-129.07,6.51q-104.43-11.2-189.82-72.33a392.36,392.36,0,0,1-108.08-117.37c-1-1.6-1.84-3.25-2.79-4.86-7.51-12.72-7.16-25.37.07-38.1a376.26,376.26,0,0,1,50-68.54A394.5,394.5,0,0,1,755.41,892.74C757.94,891.75,760.33,890.39,764.92,888.18ZM897.72,935c-27.54,1-58.35,4.29-88.38,13.45-73.25,22.41-131.43,65.36-175.69,127.57-4.87,6.85-5.17,7.25.06,13.86,10,12.68,20,25.5,30.93,37.35,42.35,45.79,94.3,75.93,154.5,91.48a314.39,314.39,0,0,0,109.19,9.1,332.61,332.61,0,0,0,114.5-31.77c49.41-24,89.76-59,121.94-103.45,7.14-9.86,7.17-9.88.21-19.4-32.15-43.93-71.78-79-120.7-103.54C999.21,947,951.6,935.71,897.71,935Zm2.24-364c-81,.07-147,65.79-147.08,146.54-.13,76.79,61,147.9,147.25,147.22,85.06-.64,146.47-66.19,146.89-147.5.39-81-65.82-146.32-147.1-146.26Z"/><path class="cls-4" d="M891,1444.54c-24.54.48-57.61-3.06-90.46-9-51.54-9.38-100.32-26.54-147.07-50-52.28-26.25-98.6-60.67-139.85-101.86a531.61,531.61,0,0,1-91.5-122.27A561.27,561.27,0,0,1,376.72,1051a521.8,521.8,0,0,1-19-100.74A577.19,577.19,0,0,1,356.23,871c2.13-44.82,10.51-88.32,23.34-131.1a524.26,524.26,0,0,1,41.93-99.72c7-12.81,17.65-20,32.49-19.53,13.63.41,23.89,7,30,19,5.69,11.31,4.37,22.62-1,34.1-10,21.41-20.17,42.82-28.76,64.83-15,38.51-23.28,78.67-27,119.89-3.61,40.26-1.4,80.13,4.93,120,12.18,76.69,42.32,145.66,88.78,207.38a467.09,467.09,0,0,0,166.47,138.66c37.31,18.63,76.19,32.49,117,40.56,48.18,9.47,96.82,12.78,145.89,7.19,75.56-8.62,145.47-33,209.11-74.66q115.51-75.55,172.74-201.44c18.2-40.21,31.09-82.07,37.36-125.81A489,489,0,0,0,1370.72,841a465,465,0,0,0-63.92-185.81Q1238.45,541.83,1121,479.81c-41.92-22.1-86-37.8-132.64-46.17-55.27-9.92-110.58-11.2-166.24-1.6-51.54,8.89-99.72,26.45-146.05,50a50.42,50.42,0,0,1-17.58,5.46c-16.87,1.59-30.72-8-35.86-23.8-4.86-15.06.83-31,14.68-39.79a204.66,204.66,0,0,1,18.06-9.78A544.86,544.86,0,0,1,822.79,361a527.75,527.75,0,0,1,106.14-4.71c43.12,2.41,85.35,9.27,126.61,21.69a565.26,565.26,0,0,1,85.92,33.88c50.5,24.74,95.49,57.37,136.17,95.94,27.89,26.43,52.1,56.11,73.77,87.83,40.57,59.39,67.5,124.76,82.33,195,8.31,39.35,11.2,79.41,10.71,119.76-.9,69.76-15.35,136.7-42.41,200.67q-55.7,131.75-169.08,219.61a535.7,535.7,0,0,1-205.48,98.83C981.62,1440.43,947.12,1444.54,891,1444.54Z"/></svg>