<svg id="Layer_1" data-name="Layer 1" xmlns="http://www.w3.org/2000/svg" xmlns:xlink="http://www.w3.org/1999/xlink" viewBox="0 0 2880 1800"><defs><style>.cls-1{fill:url(#linear-gradient);}.cls-2{fill:url(#linear-gradient-2);}.cls-3{fill:url(#linear-gradient-3);}</style><linearGradient id="linear-gradient" x1="954.02" y1="900" x2="1925.98" y2="900" gradientUnits="userSpaceOnUse"><stop offset="0" stop-color="#e14448"/><stop offset="1" stop-color="#a12a21"/></linearGradient><linearGradient id="linear-gradient-2" x1="1127.61" y1="899.91" x2="1752.48" y2="899.91" xlink:href="#linear-gradient"/><linearGradient id="linear-gradient-3" x1="1087.29" y1="578.37" x2="1149.47" y2="578.37" xlink:href="#linear-gradient"/></defs><title>Untitled-3</title><path class="cls-1" d="M1431.93,1386c-21.9.43-51.42-2.73-80.73-8.07-46-8.37-89.53-23.69-131.26-44.64-46.66-23.43-88-54.15-124.81-90.91a474.45,474.45,0,0,1-81.66-109.12,500.92,500.92,0,0,1-40.54-98.46,465.69,465.69,0,0,1-17-89.91,515.13,515.13,0,0,1-1.29-70.78c1.9-40,9.38-78.82,20.83-117a467.89,467.89,0,0,1,37.42-89c6.21-11.43,15.75-17.83,29-17.43,12.16.37,21.32,6.22,26.73,17,5.08,10.09,3.9,20.19-.89,30.43-8.94,19.11-18,38.22-25.67,57.86-13.36,34.37-20.78,70.21-24.07,107-3.22,35.93-1.25,71.51,4.4,107.11,10.87,68.44,37.77,130,79.23,185.08a416.87,416.87,0,0,0,148.57,123.75c33.3,16.63,68,29,104.43,36.2,43,8.45,86.41,11.41,130.2,6.42,67.44-7.69,129.83-29.48,186.63-66.63q103.09-67.43,154.17-179.78c16.24-35.89,27.75-73.25,33.34-112.28a436.42,436.42,0,0,0,1.09-115.45A415,415,0,0,0,1803,681.56Q1742,580.35,1637.14,525c-37.41-19.72-76.79-33.74-118.38-41.21-49.33-8.85-98.69-10-148.37-1.43-46,7.93-89,23.61-130.35,44.62a45,45,0,0,1-15.69,4.87c-15.06,1.42-27.42-7.18-32-21.24-4.34-13.44.74-27.63,13.1-35.51a182.65,182.65,0,0,1,16.12-8.73,486.28,486.28,0,0,1,149.47-47.43,471,471,0,0,1,94.73-4.2c38.48,2.15,76.17,8.27,113,19.36a504.48,504.48,0,0,1,76.68,30.24c45.07,22.08,85.22,51.2,121.53,85.62,24.89,23.59,46.5,50.08,65.84,78.39,36.21,53,60.24,111.35,73.48,174,7.42,35.12,10,70.87,9.56,106.88-.8,62.26-13.7,122-37.85,179.09q-49.71,117.58-150.9,196a478.1,478.1,0,0,1-183.39,88.2C1512.79,1382.34,1482,1386,1431.93,1386Z"/><path class="cls-2" d="M1319.39,889.46c-54.89-47.73-79.9-106.58-71.38-177.4,5.83-48.42,28.68-89.07,65.82-121,71.43-61.47,175-63.62,249.8-2.36,30.21,24.74,50.69,56.45,62.08,93.93s10.57,75.23-.87,112.5-33.19,68-64.27,94c4.19,2.05,6.47,3.4,8.91,4.34,45,17.34,84.31,43.4,119,76.75,23.22,22.32,42.51,47.65,58.87,75.3,7.22,12.2,6.56,24.19-.62,36.26A354.51,354.51,0,0,1,1516.06,1248a359.16,359.16,0,0,1-115.19,5.81q-93.2-10-169.41-64.55A350.17,350.17,0,0,1,1135,1084.51c-.86-1.43-1.64-2.9-2.49-4.34-6.7-11.35-6.39-22.64.06-34A335.81,335.81,0,0,1,1177.23,985a352.08,352.08,0,0,1,133.67-91.47C1313.16,892.65,1315.29,891.44,1319.39,889.46Zm118.52,41.82c-24.58.86-52.08,3.83-78.88,12-65.37,20-117.3,58.33-156.8,113.85-4.35,6.11-4.61,6.47.05,12.37,8.94,11.32,17.82,22.76,27.6,33.33,37.8,40.87,84.16,67.77,137.89,81.64a280.59,280.59,0,0,0,97.45,8.12,296.85,296.85,0,0,0,102.19-28.35c44.1-21.38,80.11-52.65,108.83-92.33,6.37-8.8,6.4-8.82.19-17.31-28.69-39.21-64.06-70.48-107.72-92.41C1528.49,942,1486,931.88,1437.9,931.28Zm2-324.83c-72.33.06-131.15,58.72-131.27,130.78-.12,68.53,54.44,132,131.42,131.39,75.91-.57,130.72-59.07,131.1-131.64C1571.51,664.66,1512.42,606.39,1439.88,606.45Z"/><path class="cls-3" d="M1117.9,547.26a31.11,31.11,0,1,1-30.61,31.79C1087.07,561.68,1100.83,547.39,1117.9,547.26Z"/></svg>